<svg width="164" height="31" viewBox="0 0 164 31" fill="none" xmlns="http://www.w3.org/2000/svg">
<g clip-path="url(#clip0_2801_183724)">
<path d="M77.154 30.2087C76.9544 30.2087 76.7548 30.2087 76.5385 30.1759C72.6625 29.7665 69.9843 26.098 68.5869 19.2523C67.672 14.7485 67.6055 10.4086 67.6055 10.2284L72.1635 10.1793C72.2467 16.4845 73.9767 25.3937 77.0209 25.7213C77.2704 25.754 77.5699 25.7213 77.9857 25.361C80.4311 23.3138 81.9116 15.2726 82.1778 10.212H86.7192C87.2182 17.8275 89.5138 25.2464 91.4435 25.4429C93.29 25.6394 95.6023 20.7426 96.6836 15.8294C94.9535 14.421 93.9055 13.0125 93.4065 12.2592C91.4269 9.21302 91.011 5.90482 92.3252 3.62838C93.3066 1.92515 95.1199 0.975267 97.349 1.04078C99.6446 1.10629 100.942 2.25269 101.608 3.21895C103.604 6.06859 102.689 11.0145 101.907 13.8478C103.986 14.8632 106.798 15.5838 110.541 15.289L110.907 19.76C106.698 20.0875 103.371 19.3833 100.776 18.286C99.628 22.6915 96.9164 29.9302 91.5932 29.9466C91.377 29.9466 91.1607 29.9466 90.9445 29.9139C88.1331 29.6191 86.0038 27.2935 84.4568 22.8389C83.6084 25.2627 82.4772 27.4573 80.9135 28.7675C79.7823 29.7173 78.4848 30.2087 77.1207 30.2087H77.154ZM97.0662 5.49539C96.5505 5.5609 96.3342 5.83931 96.2843 5.95395C96.0182 6.4944 96.0348 7.91922 97.2824 9.86811C97.4321 10.1138 97.665 10.4413 97.9811 10.818C98.397 8.62344 98.5966 6.6418 97.9478 5.88844C97.7482 5.65916 97.482 5.46263 97.0495 5.49539H97.0662Z" fill="black"/>
<path d="M8.58369 30.1593C6.1217 30.1593 4.1754 29.6679 2.74478 28.6853C1.31417 27.7027 0.399241 26.2942 0 24.46L4.65782 23.5429C4.8408 24.4764 5.27331 25.197 5.98862 25.7046C6.70393 26.196 7.63549 26.4416 8.79995 26.4416C9.88123 26.4416 10.713 26.2451 11.3118 25.852C11.9107 25.459 12.1935 24.8858 12.1935 24.1324C12.1935 23.2972 11.7111 22.7731 10.7629 22.5438C9.56516 22.3146 8.43398 22.118 7.38597 21.9543C6.65402 21.856 5.98862 21.7414 5.42303 21.6103C4.85744 21.4793 4.24194 21.2664 3.60981 20.9716C2.97768 20.6768 2.44535 20.3329 2.02948 19.9399C1.6136 19.5468 1.26426 19.0064 0.998104 18.3349C0.715308 17.6634 0.582227 16.9101 0.582227 16.0584C0.582227 14.3552 1.31417 12.9468 2.77805 11.8167C4.25858 10.6867 6.15497 10.1299 8.50052 10.1299C10.8461 10.1299 12.6094 10.6048 14.0067 11.5547C15.4041 12.5046 16.2192 13.782 16.4521 15.387L12.0604 16.3041C11.9107 15.5671 11.5281 14.9612 10.9459 14.4862C10.347 14.0113 9.48198 13.7656 8.3508 13.7656C7.36933 13.7656 6.62075 13.9622 6.08843 14.3225C5.55611 14.6991 5.28995 15.1905 5.28995 15.8128C5.28995 16.6153 5.75573 17.1066 6.67066 17.3031C7.61886 17.5488 8.65023 17.7453 9.78142 17.9255C10.347 18.0237 10.8294 18.1056 11.2287 18.1875C11.6113 18.2694 12.0771 18.384 12.626 18.5478C13.175 18.7116 13.6241 18.8917 13.9901 19.0719C14.3561 19.252 14.7387 19.4977 15.1545 19.7925C15.5538 20.0873 15.8698 20.4312 16.1194 20.7915C16.3689 21.1518 16.5685 21.594 16.7182 22.118C16.8846 22.6421 16.9511 23.2153 16.9511 23.8376C16.9511 25.6883 16.2192 27.195 14.7553 28.3741C13.2914 29.5533 11.2287 30.1429 8.58369 30.1429V30.1593Z" fill="black"/>
<path d="M21.5924 27.3751C19.7626 25.5245 18.8477 23.1334 18.8477 20.2183C18.8477 17.3031 19.7959 14.8793 21.6923 12.9795C23.5886 11.0798 26.0174 10.1299 28.9784 10.1299C31.9395 10.1299 34.1186 10.9815 35.9152 12.6684C37.6785 14.3716 38.5768 16.5661 38.5768 19.252C38.5768 19.9071 38.5103 20.5949 38.3939 21.3155H23.6219C23.7883 22.8878 24.3539 24.0669 25.3187 24.8858C26.2835 25.6883 27.5312 26.0977 29.0449 26.0977C30.3425 26.0977 31.4404 25.8357 32.3553 25.3116C33.2703 24.7875 33.8358 24.0833 34.102 23.2153L38.4604 23.985C38.0445 25.8684 36.9799 27.3588 35.2166 28.4724C33.4532 29.5861 31.4071 30.1429 29.0449 30.1429C25.9176 30.1429 23.4223 29.2258 21.5924 27.3751ZM29.0117 13.9622C27.5644 13.9622 26.4 14.2733 25.5017 14.912C24.6034 15.5508 24.0212 16.4679 23.7716 17.6634H33.9357C33.6861 16.4515 33.1372 15.5344 32.2888 14.912C31.4404 14.2733 30.3425 13.9622 29.0117 13.9622Z" fill="black"/>
<path d="M47.027 29.7823H42.3525V0.876465H47.027V29.7823Z" fill="black"/>
<path d="M64.8272 10.5065V14.5517H59.0715V29.7825H54.3637V14.5517H49.7725V10.5065H54.3637V7.68961C54.3637 5.51144 55.0458 3.77545 56.4099 2.46527C57.7739 1.15509 59.504 0.5 61.5667 0.5C62.5815 0.5 63.6794 0.68015 64.8605 1.02407L63.9289 4.95461C63.1304 4.72533 62.4983 4.61069 62.0325 4.61069C60.0529 4.61069 59.0715 5.6097 59.0715 7.60773V10.5065H64.8272Z" fill="black"/>
<path d="M109.108 12.9797C111.071 11.08 113.533 10.1465 116.528 10.1465C119.522 10.1465 122.001 11.0964 123.964 12.9797C125.926 14.8795 126.908 17.2706 126.908 20.153C126.908 23.0354 125.926 25.4265 123.964 27.3262C122.001 29.226 119.522 30.1759 116.528 30.1759C113.533 30.1759 111.055 29.226 109.108 27.3262C107.145 25.4265 106.181 23.0354 106.181 20.153C106.181 17.2706 107.162 14.8795 109.108 12.9797ZM120.503 15.9768C119.505 14.9123 118.175 14.3718 116.528 14.3718C114.881 14.3718 113.567 14.9123 112.569 15.9768C111.57 17.0413 111.071 18.4334 111.071 20.153C111.071 21.8726 111.57 23.2647 112.569 24.3292C113.567 25.3937 114.897 25.9342 116.528 25.9342C118.158 25.9342 119.505 25.3937 120.503 24.3292C121.502 23.2647 122.017 21.8726 122.017 20.153C122.017 18.4334 121.518 17.0413 120.503 15.9768Z" fill="black"/>
<path d="M135.21 29.7827H130.535V10.5067H134.943L135.21 12.8978C136.491 11.0963 138.287 10.2119 140.616 10.2119C141.182 10.2119 141.83 10.2938 142.529 10.474L141.997 14.9941C141.331 14.8139 140.649 14.7157 139.951 14.7157C138.587 14.7157 137.455 15.1578 136.557 16.0586C135.659 16.9593 135.21 18.1713 135.21 19.7271V29.7991V29.7827Z" fill="black"/>
<path d="M152.061 16.8279L157.7 10.5063H163.207L155.654 18.8914L163.606 29.7659H158L151.878 21.2825H150.198V29.7659H145.523V0.876465H150.198V16.8279H152.044H152.061Z" fill="black"/>
</g>
<defs>
<clipPath id="clip0_2801_183724">
<rect width="163.606" height="29.7083" fill="white" transform="translate(0 0.5)"/>
</clipPath>
</defs>
</svg>
