<svg width="895" height="650" viewBox="0 0 895 650" fill="none" xmlns="http://www.w3.org/2000/svg">
<path d="M351.753 538.468C352.219 541.954 352.451 545.208 353.136 548.36C353.651 550.714 354.681 552.97 355.62 555.212C356.126 556.416 357.138 556.893 358.57 556.933C367.688 557.192 376.743 558.016 385.699 559.884C391.728 561.141 397.883 561.262 404.042 561.333C411.713 561.427 419.39 561.734 427.048 562.162C432.307 562.456 437.477 561.935 442.642 561.132C449.213 560.116 455.739 558.886 462.032 556.679C462.162 556.336 462.337 556.064 462.364 555.783C462.793 550.99 462.807 550.95 458.286 548.922C455.43 547.638 452.731 546.091 449.459 545.641C447.49 545.369 445.704 543.773 443.909 542.311C445.306 542.462 446.711 542.578 448.103 542.77C463.129 544.807 478.074 547.308 492.514 552.047C498.127 553.888 503.637 556.193 508.909 558.859C512.128 560.486 515.1 562.898 517.642 565.479C522.53 570.45 522.637 576.241 518.443 581.804C516.134 584.871 513.13 587.172 509.916 589.2C502.603 593.823 494.618 596.975 486.453 599.703C471.472 604.705 456.079 608.04 440.534 610.701C414.972 615.079 389.208 617.575 363.31 618.873C344.986 619.791 326.661 620.134 308.323 619.693C287.017 619.185 265.761 617.861 244.639 614.923C228.811 612.721 213.101 609.917 197.968 604.58C192.453 602.637 187.06 600.399 182.243 597.046C180.162 595.597 178.13 593.961 176.447 592.076C171.989 587.087 171.877 581.537 175.865 576.192C178.099 573.196 181.008 570.953 184.11 568.938C189.978 565.131 196.365 562.381 202.909 559.987C217.268 554.735 232.115 551.316 247.096 548.4C247.593 548.302 248.112 548.302 248.622 548.311C248.801 548.316 248.976 548.485 249.352 548.69C249.088 549.506 248.815 550.362 248.533 551.213C246.894 556.139 245.283 561.079 243.587 565.987C243.229 567.026 242.598 567.98 242.016 568.93C239.563 572.924 237.11 576.923 234.594 580.881C233.408 582.749 231.775 584.394 230.884 586.378C229.51 589.445 228.561 592.722 228.901 596.168C229.071 597.875 229.29 599.605 229.747 601.25C230.181 602.797 231.345 603.533 233.064 603.189C234.366 602.931 235.718 602.868 237.003 602.556C250.457 599.257 263.585 595.04 275.747 588.273C282 584.791 288.141 581.109 294.371 577.583C297.639 575.732 300.168 573.111 302.629 570.356C304.388 568.39 306.241 566.491 308.22 564.743C311.067 562.225 313.139 559.158 312.575 555.413C311.886 550.803 313.291 546.55 313.761 542.141C313.931 540.554 314.679 539.854 316.33 539.792C327.69 539.333 339.046 538.811 350.401 538.321C350.804 538.316 351.207 538.41 351.753 538.468Z" fill="#3564E6"/>
<path d="M349.787 365.225C351.871 359.071 353.437 353.177 355.843 347.648C359.596 339.019 359.463 329.856 360.355 320.818C360.636 317.957 360.462 318.015 357.802 316.668C354.982 315.235 352.228 313.662 349.483 312.09C347.238 310.806 346.212 308.915 346.466 306.201C346.823 302.419 346.93 298.61 347.176 294.819C347.22 294.109 347.341 293.382 347.56 292.703C347.961 291.45 348.831 290.902 350.161 291.199C351.05 291.396 351.938 291.621 352.839 291.747C356.446 292.245 358.949 294.118 360.699 297.388C365.947 307.212 370.192 317.35 372.223 328.418C375.726 347.504 379.493 366.545 383.233 385.586C383.862 388.802 384.942 391.924 385.768 395.104C386.406 397.561 386.165 398.141 384.05 399.394C369.005 408.351 356.584 420.317 345.341 433.622C342.628 436.834 340.03 440.14 337.348 443.374C335.148 446.029 334.17 446.082 331.577 443.769C330.747 443.033 329.935 442.273 329.127 441.537C327.507 442.597 326.083 443.594 324.597 444.488C322.379 445.826 320.205 445.813 318.005 444.29C305.705 435.792 291.949 431.286 277.27 429.283C273.633 428.784 270.018 428.106 266.403 427.441C265.104 427.203 263.819 426.83 262.565 426.408C257.785 424.8 256.968 423.677 256.968 418.606C256.972 405.656 256.999 392.706 257.048 379.751C257.053 378.112 257.227 376.472 257.383 374.837C257.539 373.175 258.503 372.371 260.15 372.07C276.007 369.164 291.865 366.258 307.7 363.235C310.391 362.723 312.962 362.727 315.559 363.45C322.218 365.305 328.993 365.862 335.884 365.494C339.039 365.323 342.213 365.499 345.382 365.467C346.787 365.463 348.193 365.319 349.787 365.225Z" fill="#3564E6"/>
<path d="M594.637 190.14C592.968 187.251 593.823 184.689 595.598 182.198C600.737 174.989 606.664 168.494 613.811 163.266C620.525 158.36 628.388 156.052 636.372 154.048C645.34 151.803 653.601 153.691 661.585 157.722C667.06 160.485 670.589 165.23 672.905 170.552C677.503 181.096 678.241 192.032 674.498 203.103C671.908 210.764 667.628 217.428 662.649 223.718C660.494 226.441 658.083 228.41 654.245 227.004C655.019 230.044 654.916 230.361 652.568 232.356C651.481 233.28 650.381 234.186 649.294 235.106C649.258 235.137 649.289 235.244 649.289 235.566C651.222 234.758 653.042 233.883 654.938 233.236C657.143 232.481 658.32 233.169 658.794 235.334C660.981 245.297 663.159 255.265 665.311 265.238C665.633 266.729 665.932 268.26 665.955 269.778C665.991 272.001 664.179 273.041 662.506 271.702C659.921 269.635 656.812 268.997 653.798 268.109C643.886 265.189 633.872 264.783 623.763 267.042C622.072 267.421 620.234 268.015 618.924 266.35C617.618 264.685 619.022 263.225 619.706 261.841C622.153 256.899 624.841 252.074 627.176 247.083C628.039 245.235 629.238 244.195 631.027 243.485C634.824 241.976 638.59 240.382 642.365 238.816C643.014 238.548 643.645 238.235 644.011 238.066C643.595 236.146 643.032 234.441 642.893 232.704C642.714 230.392 644.038 229.566 647.035 229.883C647.585 227.986 648.14 226.08 648.779 223.888C648.457 223.754 647.773 223.468 646.861 223.089C646.029 226.263 645.528 229.673 640.76 228.303C640.576 229.923 640.304 231.298 640.29 232.682C640.25 237.168 638.081 239.896 633.796 241.186C624.425 244.007 615.055 245.556 605.572 241.708C597.472 238.423 591.506 233.079 589.014 224.441C588.178 221.544 587.435 218.62 586.21 215.772C586.353 218.41 586.402 221.058 586.666 223.687C587.1 228.039 586.241 231.968 583.54 235.512C580.941 238.923 578.365 242.369 576.03 245.962C572.416 251.525 569.017 257.23 565.523 262.872C564.665 264.26 563.927 265.747 562.902 267.006C560.143 270.394 556.56 270.644 553.295 267.751C552.458 267.01 551.649 266.193 551.023 265.274C546.756 259.011 542.77 252.6 540.785 245.172C540.02 242.315 539.009 239.521 538.271 236.659C536.857 231.191 538.333 226.548 542.676 222.924C544.318 221.553 546.12 220.357 547.914 219.183C559.843 211.357 570.792 202.335 580.954 192.354C582.408 190.925 583.71 189.332 585.083 187.818C585.561 187.292 585.964 186.582 586.563 186.296C587.216 185.984 588.263 185.756 588.759 186.073C589.229 186.377 589.502 187.506 589.35 188.149C588.974 189.725 588.249 191.216 587.762 192.769C585.736 199.211 585.342 202.219 585.915 206.733C589.394 203.804 593.599 202.545 597.615 201.103C597.915 199.76 597.857 198.255 598.573 197.376C599.239 196.563 600.733 196.421 602.057 195.907C600.943 194.104 599.235 192.974 597.343 192.055C596.439 191.421 595.54 190.783 594.637 190.14ZM624.971 231.307C627.941 231.303 629.569 230.191 630.003 228.151C630.441 226.102 629.52 223.986 627.485 223.517C625.673 223.102 624.68 222.111 623.768 220.696C623.28 219.937 622.565 219.312 621.898 218.678C618.566 215.504 614.133 213.478 611.995 209.054C611.66 208.362 610.9 207.849 610.278 207.317C605.76 203.443 599.883 205.152 598.103 210.848C596.372 216.388 599.266 223.183 604.575 225.557C606.624 226.477 608.583 227.446 610.497 228.638C611.906 229.512 613.749 230.124 615.39 230.102C618.092 230.066 620.664 230.481 623.253 231.075C623.942 231.245 624.667 231.271 624.971 231.307ZM627.355 185.886C627.292 184.542 627.27 183.212 627.158 181.895C627.091 181.082 626.957 180.265 626.738 179.484C625.83 176.283 623.307 174.761 620.167 175.806C618.472 176.368 616.759 177.243 615.413 178.395C612.031 181.279 610.609 185.225 610.461 189.55C610.34 193.113 612.613 195.59 615.006 197.871C615.417 198.26 616.101 198.429 616.692 198.554C621.639 199.599 625.794 196.912 626.724 191.97C627.095 189.966 627.154 187.908 627.355 185.886ZM645.693 211.076C650.108 210.17 654.67 207.63 657.242 202.608C659.536 198.121 656.884 193.974 651.821 193.456C646.284 192.89 639.691 197.255 638.072 202.563C636.631 207.273 639.583 211.121 645.693 211.076ZM645.926 175.359C645.572 176.431 645.161 177.359 644.995 178.323C644.933 178.694 645.335 179.261 645.684 179.547C645.903 179.725 646.574 179.707 646.771 179.511C648.198 178.091 649.656 176.681 650.895 175.105C651.839 173.9 651.57 172.739 650.13 172.118C648.855 171.569 648.055 171.069 648.162 169.534C648.193 169.114 647.612 168.404 647.16 168.239C645.537 167.65 641.806 170.886 642.16 172.596C642.285 173.199 642.862 173.819 643.403 174.19C644.123 174.685 645.013 174.953 645.926 175.359Z" fill="#3564E6"/>
<path d="M481.032 421.622C478.72 421.025 476.26 420.662 474.023 419.76C466.844 416.858 461.36 411.898 457.598 405.129C453.26 397.316 454.378 389.615 461.105 383.739C465.328 380.052 470.078 376.966 474.622 373.652C475.861 372.75 477.203 371.992 478.5 371.171C480.603 369.839 481.251 369.808 483.166 371.279C484.132 372.024 485 372.916 485.85 373.8C493.064 381.353 500.324 388.866 507.414 396.531C508.899 398.137 510.022 400.227 510.84 402.281C512.106 405.452 511.319 407.825 508.568 409.839C506.591 411.283 504.529 412.683 502.332 413.741C497.645 416.002 492.895 418.164 488.064 420.088C485.926 420.935 483.515 421.101 481.032 421.622Z" fill="#3564E6"/>
<path d="M258.338 301.81C259.026 296.467 259.82 291.138 260.384 285.786C261.138 278.609 261.71 271.414 262.367 264.228C262.429 263.524 262.358 262.727 262.664 262.148C262.948 261.619 263.658 261.013 264.19 261.004C264.723 260.995 265.282 261.659 265.792 262.077C265.916 262.18 265.952 262.465 265.934 262.656C265.548 266.819 268.57 269.223 270.823 271.957C272.168 273.587 273.885 274.913 275.495 276.311C278.495 278.92 280.504 282.091 281.441 286.004C283.592 294.993 285.846 303.956 288.043 312.932C288.184 313.52 288.295 314.134 288.304 314.735C288.331 316.837 287.244 317.861 285.243 317.335C280.842 316.182 276.392 315.127 272.141 313.542C268.649 312.242 265.384 310.305 262.087 308.533C259.465 307.122 257.744 305.1 258.338 301.81Z" fill="#3564E6"/>
<path d="M262.394 575.961C260.173 575.668 257.725 575.497 255.348 574.996C252.33 574.36 251.488 572.821 252.183 569.83C252.205 569.731 252.236 569.632 252.267 569.532C255.081 560.825 257.845 552.104 260.743 543.428C261.353 541.6 262.314 539.845 263.374 538.23C264.665 536.254 266.668 535.392 268.96 536.006C272.686 537.003 276.408 538.068 280.049 539.349C282.649 540.265 283.682 542.273 283.161 545.318C281.99 552.153 280.174 558.812 276.381 564.696C274.609 567.443 272.58 570.042 270.456 572.528C268.435 574.892 265.738 576.043 262.394 575.961Z" fill="#3564E6"/>
<path d="M406.41 258.586C410.86 259.962 412.586 259.384 414.902 256.189C415.306 255.638 416.233 255.02 416.78 255.126C417.367 255.241 418.03 256.101 418.227 256.763C418.599 258.007 418.586 259.358 418.859 260.638C419.482 263.546 420.473 264.344 423.471 264.512C427.011 264.711 430.139 263.704 432.805 261.366C433.571 260.695 434.306 259.98 435.126 259.384C437.237 257.857 438.72 258.246 439.639 260.633C440.181 262.041 440.656 263.506 440.907 264.989C441.431 268.064 445.254 268.74 447.024 266.48C450.022 262.641 453.15 258.886 455.83 254.839C457.071 252.968 457.38 250.501 458.124 248.308C458.447 247.359 458.586 246.247 459.195 245.524C459.67 244.963 460.781 244.61 461.534 244.707C461.96 244.765 462.529 245.912 462.538 246.578C462.637 253.295 460.902 259.653 457.474 265.355C453.665 271.687 447.808 275.332 440.118 274.745C429.897 273.964 419.738 272.605 410.116 268.792C408.418 268.117 406.661 267.389 405.236 266.299C404.103 265.43 402.991 264.075 402.66 262.747C401.911 259.737 402.758 256.745 403.766 253.868C404.098 252.928 404.891 252.372 405.958 252.712C407.011 253.047 407.262 253.934 407.109 254.914C406.926 256.097 406.666 257.257 406.41 258.586Z" fill="#3564E6"/>
<path d="M405.914 514.762C406.414 518.812 406.878 522.57 407.347 526.324C407.67 528.92 409.103 530.616 411.6 531.49C412.869 531.934 414.17 532.36 415.33 533.015C417.673 534.333 418.082 536.325 416.358 538.397C414.034 541.195 411.2 543.46 407.915 545.083C405.254 546.398 402.579 545.927 400.21 544.388C394.546 540.711 390.015 535.975 387.254 529.799C384.802 524.319 386.226 519.592 391.162 516.04C394.842 513.394 399.022 511.927 403.398 510.909C404.09 510.748 404.927 510.6 405.536 510.842C406.323 511.156 407.215 511.744 407.538 512.448C407.729 512.86 406.933 513.748 406.51 514.376C406.36 514.605 406.009 514.703 405.914 514.762Z" fill="#3564E6"/>
<path d="M624.238 356.371C622.966 355.904 621.626 355.628 620.51 354.97C613.575 350.866 606.684 346.695 599.793 342.515C596.392 340.456 593.032 338.335 589.65 336.245C589.219 335.979 588.619 335.81 588.395 335.423C588.077 334.867 587.75 334.035 587.956 333.542C588.162 333.048 588.995 332.648 589.609 332.546C590.147 332.457 590.819 332.737 591.33 333.03C592.665 333.786 593.848 334.044 595.232 332.986C595.783 332.568 596.809 332.666 597.616 332.684C603.852 332.821 610.093 332.902 616.321 333.239C617.728 333.315 619.242 334.115 620.425 334.965C624.314 337.753 628.069 340.723 631.877 343.618C632.365 343.987 632.899 344.303 633.338 344.725C634.243 345.592 634.655 346.722 633.813 347.727C631.662 350.283 629.435 352.791 627.092 355.17C626.451 355.819 625.273 355.957 624.238 356.371Z" fill="#3564E6"/>
<path d="M249.749 146.959C250.052 146.792 250.991 146.414 251.755 145.815C252.852 144.951 253.913 144.023 255.318 144.987C256.632 145.887 256.095 147.153 255.688 148.337C255.557 148.715 255.467 149.107 255.273 149.778C256.623 150.94 257.987 152.156 259.401 153.318C261.261 154.849 261.18 156.497 259.071 157.699C257.152 158.793 255.128 158.654 252.721 157.731C252.482 158.942 252.238 159.982 252.08 161.04C251.868 162.454 251.949 164.355 250.12 164.382C248.598 164.404 246.882 163.729 246.051 162.085C245.495 160.986 245.03 159.847 244.479 158.631C243.513 158.406 242.514 158.212 241.534 157.942C239.466 157.375 239.064 156.591 239.687 154.583C240.143 153.119 240.789 151.669 240.916 150.174C241.024 148.9 240.509 147.571 240.265 146.27C240.053 145.131 239.814 143.834 241.006 143.235C241.665 142.906 242.803 143.05 243.522 143.402C245.409 144.316 247.18 145.464 249.749 146.959Z" fill="#F4BB49"/>
<path d="M219.802 208.056C221.456 208.056 222.815 208.069 224.17 208.052C225.259 208.039 226.361 208.078 226.766 209.241C227.23 210.569 226.256 211.207 225.181 211.742C224.818 211.923 224.474 212.138 223.89 212.466C224.271 213.16 224.648 213.811 224.983 214.483C225.452 215.423 225.705 216.423 224.772 217.203C223.794 218.018 222.843 217.617 221.989 216.875C221.768 216.681 221.47 216.565 221.074 216.336C220.234 216.849 219.425 217.5 218.493 217.875C217.712 218.19 216.692 218.479 215.939 218.268C214.8 217.949 214.58 216.884 214.818 215.815C214.947 215.25 215.112 214.694 215.356 213.776C214.897 213.474 214.272 213.22 213.891 212.776C212.683 211.367 212.866 210.466 214.341 209.319C214.823 208.944 215.383 208.422 215.48 207.901C215.65 206.97 215.788 206.095 216.89 205.849C218.153 205.565 218.796 206.379 219.32 207.289C219.471 207.539 219.637 207.789 219.802 208.056Z" fill="#F4BB49"/>
<path d="M319.649 159.241C317.57 158.876 316.162 158.487 314.875 160.076C314.111 161.02 312.597 160.686 311.999 159.422C311.124 157.562 310.416 155.625 309.726 153.689C309.569 153.246 309.559 152.42 309.828 152.226C311.453 151.048 311.745 149.188 312.597 147.612C313.203 146.488 315.204 146.574 315.389 147.734C315.898 150.98 318.889 152.054 320.681 154.154C320.88 154.388 321.2 154.519 321.394 154.754C322.223 155.725 322.441 156.903 321.691 157.878C321.144 158.582 320.13 158.934 319.649 159.241Z" fill="#F4BB49"/>
<path d="M593.981 189.962C594.847 190.579 595.713 191.192 596.579 191.809C596.825 193.142 596.575 194.213 595.489 195.228C594.511 196.141 593.916 197.444 593.067 198.515C592.524 199.2 591.921 199.899 591.192 200.357C589.761 201.266 588.49 200.632 588.158 198.96C587.688 196.587 587.684 194.299 589.447 192.345C589.701 192.062 589.861 191.685 590.046 191.342C591.235 189.174 591.235 189.17 593.981 189.962Z" fill="#3564E6"/>
<path d="M668.116 154.639C667.826 158.691 667.859 158.602 663.702 157.337C661.547 156.686 659.955 155.839 659.421 153.604C658.947 151.621 660.65 150.373 663.412 149.531C665.566 148.875 667.163 149.82 667.679 151.816C667.914 152.74 667.974 153.698 668.116 154.639Z" fill="#F4BB49"/>
<path d="M347.705 326.254C345.877 326.232 344.713 324.762 344.713 322.482C344.717 320.183 346.354 318.677 348.797 318.727C350.825 318.768 352.3 320.377 352.232 322.464C352.164 324.681 350.247 326.282 347.705 326.254Z" fill="#3564E6"/>
<path d="M327.164 133.569C327.203 131.934 328.479 130.327 329.54 130.517C330.445 130.68 330.928 131.386 330.925 132.506C330.921 134.215 329.902 135.655 328.748 135.511C327.714 135.381 327.16 134.67 327.164 133.569Z" fill="#F4BB49"/>
<path d="M704.84 417.953C704.455 419.73 704.213 421.139 703.842 422.512C703.179 424.969 701.555 426.279 698.986 426.467C697.674 426.561 696.376 426.794 694.657 427.018C695.279 435.093 695.888 442.985 696.519 451.159C697.938 451.159 699.039 451.105 700.136 451.168C702.486 451.302 704.853 451.351 707.172 451.7C710.48 452.197 711.796 453.633 712.261 456.899C712.507 458.608 712.619 460.335 712.82 462.361C714.083 462.433 715.273 462.545 716.459 462.554C740.329 462.759 764.199 462.947 788.069 463.153C816.549 463.399 845.029 463.654 873.504 463.914C874.525 463.923 875.563 463.9 876.566 464.07C877.694 464.263 878.334 465.077 878.41 466.222C878.486 467.385 877.904 468.294 876.821 468.562C875.751 468.83 874.596 468.839 873.482 468.83C847.155 468.625 820.828 468.405 794.496 468.186C768.478 467.971 742.455 467.757 716.437 467.542C715.135 467.533 713.828 467.542 712.494 467.542C712.198 469.591 711.984 471.3 711.706 473C711.173 476.284 709.401 478.396 705.986 478.91C704.383 479.152 702.786 479.402 700.995 479.68C701.676 492.39 702.356 505.024 703.054 518.065C705.578 518.432 708.268 518.866 710.972 519.215C728.235 521.443 745.499 523.662 762.762 525.868C781.145 528.217 799.532 530.539 817.914 532.887C835.585 535.142 853.255 537.415 870.926 539.692C871.839 539.809 872.761 539.956 873.63 540.242C874.847 540.645 875.411 541.58 875.241 542.869C875.084 544.054 874.265 544.667 873.182 544.833C872.493 544.94 871.759 544.833 871.052 544.743C850.843 542.166 830.634 539.594 810.43 536.999C792.155 534.65 773.885 532.266 755.61 529.908C737.841 527.617 720.085 525.242 702.298 523.134C698.055 522.633 693.704 523.139 689.403 523.04C686.963 522.987 684.529 522.638 682.089 522.441C680.97 522.351 679.842 522.262 678.719 522.262C590.41 522.24 502.101 522.226 413.787 522.217C412.78 522.217 411.778 522.302 410.462 522.36C410.766 524.942 411.044 527.331 411.357 529.957C413.026 530.485 414.656 531.008 416.289 531.509C427.627 535.008 439.009 538.372 450.279 542.077C454.33 543.41 458.157 545.477 461.993 547.396C463.42 548.112 464.741 549.222 465.824 550.412C468.277 553.109 468.174 556.228 465.766 558.988C464.226 560.755 462.239 561.905 459.992 562.267C455.556 562.983 451.094 563.717 446.613 563.963C431.06 564.813 415.488 565.037 399.93 563.972C387.568 563.126 375.268 561.766 362.995 560.008C356.796 559.118 353.703 555.888 352.611 550.143C351.564 544.613 350.579 539.075 349.617 533.532C348.986 529.908 348.444 526.275 347.831 522.441C338.441 522.441 329.184 522.441 319.615 522.441C319.181 526.275 318.684 530.096 318.326 533.934C317.583 541.88 316.88 549.835 316.222 557.789C315.994 560.54 315.188 563.068 313.344 565.081C310.448 568.24 307.602 571.519 304.321 574.248C290.455 585.8 274.95 594.703 258.439 601.888C251.595 604.868 244.434 606.425 236.919 606.017C230.55 605.673 226.691 601.298 227.618 594.958C228.007 592.287 229.005 589.616 230.2 587.173C231.543 584.435 233.257 581.836 235.093 579.384C243.234 568.522 247.298 556.076 249.317 542.869C250.23 536.909 250.727 530.883 251.389 524.884C251.465 524.181 251.398 523.461 251.398 522.298C250.069 522.262 248.789 522.199 247.509 522.199C217.391 522.19 187.268 522.186 157.15 522.181C109.307 522.172 61.4645 522.168 13.6219 522.15C12.3955 522.15 11.1557 522.15 9.95169 521.967C8.73873 521.779 7.87041 521.027 7.83461 519.703C7.7988 518.227 8.71188 517.426 10.0725 517.242C11.2855 517.081 12.5208 517.095 13.7472 517.095C82.4877 517.113 151.233 517.139 219.973 517.162C229.296 517.166 238.62 517.166 247.943 517.171C249.044 517.171 250.145 517.171 251.694 517.171C252.052 500.394 252.401 483.961 252.759 467.148C251.407 467.081 250.333 466.992 249.254 466.983C220.671 466.755 192.093 466.531 163.51 466.307C110.547 465.896 57.5839 465.479 4.62093 465.063C3.80632 465.059 2.96933 465.072 2.1771 464.902C0.744823 464.598 -0.145879 463.515 0.0197282 462.339C0.194287 461.082 0.97309 460.312 2.24424 460.16C3.05437 460.062 3.87794 460.057 4.69702 460.062C60.3232 460.513 115.949 460.974 171.575 461.426C197.392 461.636 223.209 461.833 249.022 462.039C250.14 462.048 251.259 462.039 252.822 462.039C253.153 443.392 253.479 424.928 253.806 406.227C251.358 406.048 249.241 405.829 247.119 405.744C233.915 405.221 220.712 404.76 207.508 404.214C190.929 403.53 174.355 402.756 157.776 402.067C144.984 401.534 132.188 401.096 119.396 400.568C102.41 399.866 85.4239 399.096 68.4379 398.394C55.5429 397.861 42.6435 397.396 29.7485 396.882C21.3562 396.546 12.9684 396.175 4.57617 395.821C4.26734 395.808 3.9585 395.817 3.65414 395.772C1.7877 395.508 0.820911 394.546 0.937284 393.079C1.0447 391.741 1.98464 390.887 3.74813 390.878C6.41128 390.86 9.07442 390.989 11.7331 391.101C36.5026 392.112 61.2676 393.137 86.0371 394.157C111.008 395.186 135.983 396.21 160.954 397.239C185.822 398.264 210.695 399.284 235.563 400.313C241.484 400.559 247.41 400.81 253.667 401.074C254.102 392.533 254.084 384.207 253.547 375.465C251.04 375.295 248.632 375.098 246.224 374.973C239.846 374.637 233.651 373.47 227.622 371.295C218.765 368.097 212.404 362.267 208.519 353.713C207.933 352.42 207.333 351.132 206.689 349.736C200.615 349.342 194.595 348.93 188.57 348.564C171.907 347.557 155.247 346.555 138.584 345.575C126.315 344.85 114.043 344.188 101.779 343.454C83.074 342.336 64.3694 341.159 45.6602 340.036C34.3139 339.356 22.9631 338.726 11.6167 338.059C10.2963 337.983 8.9491 337.907 7.669 337.603C6.43814 337.312 5.81151 336.345 5.99055 335.044C6.15168 333.889 6.90363 333.223 8.03155 333.079C8.73426 332.99 9.46382 333.017 10.1755 333.057C23.4688 333.831 36.7577 334.618 50.051 335.401C61.5003 336.073 72.9541 336.735 84.4034 337.415C96.9806 338.162 109.553 338.936 122.131 339.687C133.378 340.363 144.622 341.025 155.87 341.696C168.751 342.466 181.633 343.244 194.514 344.005C197.961 344.206 201.407 344.34 205.136 344.519C204.894 342.819 204.679 341.432 204.5 340.045C202.19 322.382 205.847 305.829 214.043 290.202C221.338 276.288 231.673 264.88 243.95 255.194C247.638 252.281 251.555 249.655 255.61 246.716C255.471 246.027 255.319 245.145 255.118 244.273C252.226 231.768 251.913 219.331 256.156 207.037C258.43 200.442 261.925 194.568 267.211 189.947C277.076 181.317 288.454 179.438 300.825 183.035C312.122 186.323 320.98 193.284 328.486 202.116C332.685 207.055 336.109 212.508 338.978 218.32C339.336 219.045 339.725 219.756 340.115 220.467C340.15 220.535 340.289 220.544 340.696 220.709C341.202 218.011 341.632 215.354 342.205 212.728C342.773 210.133 343.301 207.507 344.174 205.01C345.727 200.586 349.25 199.637 352.777 202.755C354.513 204.29 356.017 206.196 357.248 208.169C363.501 218.172 368.756 228.69 373.048 239.683C373.491 240.824 373.93 241.964 374.395 243.163C385.052 242.814 395.66 242.47 406.545 242.117C407.49 240.627 408.676 239.079 409.499 237.356C410.498 235.267 412.216 234.448 414.248 233.849C421.857 231.603 429.587 231.196 437.353 232.65C442.169 233.554 446.963 234.699 451.64 236.144C455.395 237.303 458.81 239.267 460.542 243.333C467.86 243.937 475.192 244.541 482.765 245.168C482.993 242.877 483.217 240.667 483.432 238.457C484.358 229.03 486.476 219.886 489.998 211.086C496.372 195.172 507.315 183.003 521.177 173.228C533.333 164.656 546.931 159.99 561.599 158.093C571.11 156.862 580.581 156.572 590.016 158.621C595.441 159.802 600.655 161.591 605.61 164.106C606.335 164.472 607.078 164.808 607.991 165.242C614.656 160.267 621.871 156.258 629.954 154.026C638.096 151.78 646.3 151.377 654.67 153.655C655.023 152.992 655.346 152.384 655.677 151.78C659.02 145.678 667.78 145.078 671.956 150.662C674.511 154.08 674.346 158.106 671.472 161.314C671.074 161.761 670.492 162.043 670.049 162.361C680.111 176.834 680.988 180.945 678.562 201.726C678.759 201.892 678.956 202.147 679.211 202.268C692.836 208.719 703.672 218.342 712.771 230.346C724.203 245.427 729.108 262.437 729.65 281.017C729.878 288.81 729.927 296.604 727.658 304.169C722.157 322.49 712.216 337.737 695.36 347.347C678.056 357.212 659.804 359.028 641.068 351.114C640.325 350.801 639.555 350.537 638.754 350.228C631.485 356.379 624.265 362.482 616.433 369.112C629.784 369.9 642.375 370.647 655.131 371.398C655.131 370.119 655.171 369.224 655.122 368.334C654.903 364.294 656.272 362.097 660.265 361.251C664.056 360.451 667.936 359.941 671.804 359.681C678.137 359.256 684.488 359.131 690.831 358.903C691.851 358.867 692.88 358.889 693.901 358.97C699.138 359.377 700.624 360.679 701.783 365.788C701.85 366.074 701.984 366.347 702.154 366.808C703.153 366.593 704.133 366.428 705.086 366.168C761.769 350.778 818.451 335.379 875.134 319.984C876.123 319.716 877.098 319.389 878.105 319.215C879.484 318.978 880.527 319.542 881.046 320.861C881.485 321.984 880.876 323.228 879.533 323.827C878.701 324.199 877.783 324.387 876.893 324.624C819.722 340.157 762.552 355.69 705.382 371.224C704.397 371.492 703.417 371.787 702.11 372.159C701.783 378.006 698.784 381.549 692.196 381.608C692.558 388.896 692.907 395.893 693.27 403.163C694.443 403.248 695.423 403.337 696.403 403.378C701.505 403.588 703.399 405.243 704.187 410.223C704.312 411.014 704.419 411.806 704.571 412.853C708.434 412.205 712.145 411.605 715.846 410.961C742.567 406.299 769.288 401.628 796.009 396.953C822.327 392.345 848.641 387.723 874.954 383.115C876.064 382.923 877.179 382.717 878.298 382.637C879.654 382.538 880.728 383.057 881.127 384.466C881.48 385.715 880.715 386.985 879.072 387.366C876.284 388.014 873.451 388.466 870.631 388.958C845.127 393.423 819.624 397.888 794.12 402.34C768.912 406.737 743.704 411.113 718.496 415.506C713.962 416.303 709.437 417.13 704.84 417.953ZM392.523 299.521C393.57 299.78 394.049 299.919 394.532 300.022C401.738 301.548 408.962 303.006 416.151 304.608C433.427 308.451 450.669 312.459 467.968 316.208C482.264 319.309 496.622 322.132 510.941 325.116C512.225 325.384 513.51 325.827 514.682 326.413C517.35 327.756 517.807 328.99 517.037 331.903C516.289 334.717 514.521 336.855 512.257 338.493C508.944 340.891 505.592 343.275 502.034 345.266C496.143 348.559 490.105 351.597 484.072 354.63C476.454 358.455 469.109 362.701 462.659 368.325C455.162 374.861 449.635 382.681 447.039 392.426C444.935 400.335 446.47 407.435 451.622 413.739C456.268 419.425 462.167 423.385 469.055 425.854C479.807 429.711 490.759 429.192 501.814 427.447C515.954 425.219 529.001 420.061 541.48 413.225C568.858 398.224 594.505 380.682 618.55 360.786C619.091 360.339 619.727 360.012 620.447 359.542C619.601 358.921 619.293 358.657 618.944 358.446C608.788 352.295 598.628 346.157 588.476 339.996C585.853 338.408 583.441 336.216 580.608 335.299C577.672 334.346 574.337 334.61 571.181 334.332C570.671 334.287 570.165 334.135 569.66 334.14C565.842 334.171 563.179 332.001 560.695 329.487C559.978 328.758 559.262 328.015 558.649 327.201C556.492 324.342 554.294 321.506 552.293 318.539C551.416 317.242 550.449 316.62 548.909 316.311C539.009 314.316 529.65 310.759 520.774 305.981C499.035 294.278 486.713 275.984 483.043 251.704C482.971 251.23 482.814 250.765 482.662 250.147C475.532 249.557 468.518 248.975 461.446 248.389C461.236 249.114 461.039 249.583 460.963 250.071C460.072 255.865 457.696 261.054 454.254 265.716C452.821 267.658 451.049 269.51 449.062 270.848C443.691 274.454 437.85 271.93 436.391 265.591C436.22 264.844 436.14 264.079 435.992 263.144C433.548 264.978 431.485 266.83 429.149 268.217C423.778 271.407 418.863 269.005 417.789 262.835C417.601 261.766 417.471 260.688 417.292 259.471C415.909 260.289 414.821 261.054 413.635 261.614C408.824 263.891 404.325 261.578 403.658 256.308C403.381 254.12 403.784 251.843 403.914 249.606C403.958 248.854 404.102 248.107 404.227 247.154C403.6 247.347 403.099 247.387 403.072 247.525C399.568 264.754 396.081 281.97 392.523 299.521ZM409.772 516.992C417.158 517.703 676.015 517.479 678.343 516.777C677.922 504.563 677.667 492.323 675.657 479.832C673.925 479.832 672.291 479.975 670.689 479.8C668.057 479.51 665.399 479.201 662.843 478.543C660.175 477.859 658.488 475.975 657.955 473.179C657.772 472.213 657.512 471.26 657.261 470.199C572.439 469.506 487.796 468.826 402.965 468.182C405.274 484.731 407.512 500.81 409.772 516.992ZM657.244 465.207C657.315 463.824 657.369 462.827 657.423 461.824C657.521 459.986 657.517 458.133 657.74 456.308C658.049 453.798 658.613 453.109 661.164 452.792C664.709 452.349 668.294 452.192 671.862 451.906C672.735 451.834 673.607 451.731 674.543 451.637C674.01 443.924 673.5 436.525 672.981 429.035C670.161 429.035 667.713 429.062 665.269 429.026C662.297 428.982 660.175 427.715 659.28 424.731C659.083 424.074 658.783 423.452 658.51 422.745C648.824 422.351 639.313 421.962 629.802 421.573C614.763 420.955 599.72 420.347 584.681 419.712C571.79 419.17 558.9 418.625 546.009 418.012C544.089 417.922 542.419 418.325 540.737 419.22C529.744 425.071 518.245 429.536 505.941 431.764C495.718 433.617 485.482 434.748 475.129 432.668C464.221 430.476 454.854 425.555 447.835 416.826C446.094 414.656 444.362 413.587 441.712 413.744C441.202 413.775 440.687 413.712 440.177 413.69C425.751 413.095 411.326 412.5 396.9 411.909C395.902 411.869 394.904 411.905 393.489 411.905C396.331 429.147 399.12 446.054 401.949 463.18C487.107 463.86 571.983 464.531 657.244 465.207ZM348.368 311.238C349.402 311.381 350.293 311.484 351.179 311.636C353.296 311.999 355.417 312.352 357.521 312.773C359.781 313.224 361.16 314.683 361.505 316.911C361.764 318.615 361.867 320.374 361.76 322.096C360.954 335.469 357.736 348.349 353.694 361.064C352.419 365.077 349.921 367.367 345.781 368.253C338.458 369.815 331.136 369.882 323.809 368.611C320.801 368.088 317.793 367.305 315.479 365.086C297.133 371.993 278.159 375.085 258.739 375.577C258.739 392.363 258.739 408.724 258.739 425.367C281.037 429.228 302.951 434.489 323.142 445.105C326.396 440.837 328.007 439.365 334.842 443.768C349.263 426.038 366.213 411.082 385.979 399.517C385.786 398.336 385.692 397.53 385.518 396.743C382.353 382.462 379.243 368.164 375.993 353.901C371.992 336.345 367.704 318.866 362.234 301.686C361.241 298.563 359.889 296.796 356.559 296.425C354.169 296.161 351.832 295.396 349.308 294.819C348.986 300.451 348.681 305.731 348.368 311.238ZM616.531 319.752C616.03 321.828 616.374 323.85 617.355 325.666C618.465 327.724 619.691 329.769 621.172 331.563C625.886 337.267 631.91 341.253 638.508 344.501C659.799 354.984 680.151 352.778 698.945 338.972C711.733 329.576 719.427 316.307 723.339 300.939C725.151 293.812 724.923 286.524 724.601 279.254C723.862 262.611 719.355 247.333 709.15 233.795C702.02 224.337 693.834 216.231 683.642 210.195C681.556 208.956 679.359 207.905 677.107 206.71C676.66 207.574 676.333 208.084 676.114 208.639C672.824 217.04 668.004 224.472 661.728 230.932C660.529 232.167 660.475 233.227 660.918 234.744C662.955 241.7 665.336 248.541 666.603 255.744C668.415 266.025 669.373 276.208 666.826 286.484C665.936 290.081 664.929 293.615 662.874 296.738C660.068 300.997 656.138 302.917 651.04 302.017C648.323 301.539 645.656 300.792 642.952 300.25C640.562 299.776 638.181 299.011 635.688 299.762C633.257 300.496 632.192 302.089 633.199 304.393C633.862 305.91 635.133 307.212 636.319 308.428C637.742 309.887 639.448 311.068 640.871 312.522C642.003 313.681 641.976 315.233 641.01 316.083C639.926 317.036 638.74 316.924 637.653 316.088C636.843 315.466 636.135 314.714 635.361 314.048C633.239 312.227 630.93 310.728 628.115 310.249C625.572 309.815 624.476 310.728 624.852 313.162C625.031 314.32 625.626 315.466 626.257 316.481C626.951 317.604 627.962 318.526 628.723 319.613C629.708 321.022 629.677 322.342 628.781 323.25C627.873 324.172 626.597 324.181 625.165 323.174C623.912 322.293 622.779 321.219 621.477 320.423C620.009 319.524 618.429 318.678 616.531 319.752ZM601.895 168.011C596.363 165.054 588.297 162.875 581.7 162.37C570.34 161.493 559.186 162.844 548.26 165.855C518.236 174.123 495.494 198.997 489.779 229.59C488.387 237.057 487.08 244.609 488.194 252.165C490.665 268.893 498.113 283.124 511.384 293.808C524.015 303.977 538.7 309.717 554.666 312.271C556.339 312.54 558.036 312.652 560.077 312.88C560.269 300.219 560.453 287.96 560.636 275.876C552.213 269.644 549.075 266.446 544.693 259.547C538.02 249.042 534.667 237.428 533.454 225.152C533.092 221.496 532.957 217.797 533.02 214.124C533.065 211.52 534.242 210.365 535.912 210.616C537.304 210.826 538.154 211.967 537.975 214.477C537.796 216.991 538.056 219.532 538.136 222.543C562.879 207.981 583.199 189.186 601.895 168.011ZM257.199 251.668C253.659 254.236 250.436 256.415 247.383 258.804C235.482 268.132 225.474 279.129 218.415 292.582C211.532 305.708 208.027 319.653 208.936 334.56C209.356 341.49 210.936 348.094 214.365 354.205C217.328 359.484 221.558 363.301 227.108 365.721C232.805 368.204 238.799 369.443 244.948 369.935C258.385 371.014 271.759 370.472 285.034 368.11C295.53 366.24 305.87 363.761 315.703 359.534C319.266 358.003 322.748 356.321 325.827 353.892C325.111 353.006 324.31 352.317 323.912 351.445C323.522 350.586 323.54 349.539 323.343 348.367C321.898 348.751 320.635 349.127 319.351 349.423C318.46 349.628 317.547 349.807 316.634 349.848C315.363 349.906 314.432 349.253 314.123 348.018C313.805 346.752 314.45 345.785 315.578 345.284C316.598 344.832 317.708 344.591 318.774 344.233C320.282 343.727 321.781 343.204 323.236 342.707C322.847 340.989 322.538 339.638 322.202 338.166C320.935 338.166 319.718 338.211 318.505 338.153C317.095 338.086 316.142 337.312 316.03 335.903C315.913 334.457 316.862 333.648 318.174 333.317C318.859 333.142 319.593 333.169 320.304 333.071C321.392 332.918 322.475 332.739 323.952 332.507C321.759 330.386 322.632 328.167 322.999 326.033C317.095 325.416 311.384 324.924 305.708 324.194C294.514 322.758 283.647 319.846 272.838 316.678C263.998 314.088 255.923 309.99 248.453 304.652C247.124 303.704 245.83 302.684 244.631 301.574C242.872 299.941 242.617 298.219 243.812 297.056C244.935 295.964 246.045 296.206 248.014 297.964C249.818 299.575 251.707 301.06 254.455 302.536C254.455 299.821 254.321 297.691 254.478 295.588C255.377 283.531 257.409 271.64 259.813 259.806C259.929 259.238 259.996 258.563 259.799 258.044C259.074 256.053 258.215 254.102 257.199 251.668ZM258.394 430.409C257.866 458.5 257.347 485.979 256.827 513.507C259.186 514.392 261.241 515.363 263.402 515.945C277.367 519.725 291.453 520.553 305.614 517.171C308.475 516.486 311.209 515.251 313.984 514.231C315.144 513.806 315.672 512.947 315.784 511.659C316.795 500.447 317.834 489.24 318.917 478.038C319.637 470.607 320.43 463.184 321.217 455.762C321.41 453.964 321.728 452.179 322.014 450.215C302.141 439.415 280.778 434.261 258.394 430.409ZM350.127 505.905C352.714 506.272 355.221 506.934 357.727 506.921C365.188 506.876 372.672 506.832 380.106 506.268C386.856 505.758 393.436 504.138 399.514 500.953C402.258 499.517 402.334 499.49 401.895 496.501C400.284 485.478 398.726 474.441 396.945 463.444C393.932 444.877 390.772 426.333 387.657 407.784C387.501 406.845 387.169 405.932 386.865 404.818C386.024 405.306 385.491 405.592 384.981 405.919C375.895 411.681 367.001 417.757 359.253 425.241C352.642 431.63 346.47 438.475 340.083 445.101C338.288 446.962 337.85 448.743 338.919 451.382C340.589 455.516 341.932 459.856 342.787 464.227C344.707 474.056 346.233 483.957 347.943 493.826C348.619 497.745 349.357 501.646 350.127 505.905ZM314.759 519.703C295.132 526.302 276.074 525.34 256.957 519.211C256.742 521.448 256.492 523.372 256.38 525.3C255.838 534.511 254.603 543.634 252.481 552.608C250.064 562.84 246.376 572.539 239.953 581.049C238.047 583.577 236.359 586.283 234.797 589.039C233.857 590.703 233.105 592.564 232.702 594.43C231.731 598.94 233.441 600.984 238.082 601.105C244.326 601.266 250.302 599.942 256.004 597.49C272.166 590.542 287.295 581.827 300.919 570.643C303.359 568.638 305.494 566.267 307.79 564.079C310.229 561.753 311.12 558.849 311.397 555.557C312.149 546.586 313.062 537.63 313.908 528.669C314.177 525.841 314.445 523.009 314.759 519.703ZM656.084 376.481C651.358 376.181 646.672 375.872 641.99 375.586C632.385 375 622.779 374.467 613.179 373.814C611.218 373.68 609.683 374.118 608.116 375.344C602.956 379.375 597.719 383.312 592.433 387.182C580.446 395.96 567.753 403.65 554.997 411.243C554.124 411.762 552.978 412.052 552.441 413.395C587.751 414.84 622.797 416.28 657.709 417.707C657.942 417.273 658.116 417.103 658.121 416.929C658.134 415.703 658.116 414.482 658.103 413.256C658.058 409.78 659.477 407.587 662.798 406.55C664.535 406.008 666.406 405.896 668.218 405.601C669.275 405.431 670.34 405.279 671.669 405.078C671.164 398.13 670.685 391.54 670.21 385.026C658.895 383.648 658.895 383.648 656.084 376.481ZM259.361 213.886C259.15 214.969 258.842 216.347 258.622 217.734C257.655 223.85 257.7 229.974 258.658 236.077C261.388 253.538 268.868 268.562 281.995 280.556C287.733 285.8 294.286 289.732 301.908 291.642C311.482 294.04 320.345 292.747 328.347 286.623C330.733 284.797 331.763 282.704 330.997 279.55C330.142 279.916 329.337 280.288 328.509 280.61C325.367 281.836 322.287 283.263 319.064 284.211C311.854 286.336 304.867 285.75 298.458 281.554C294.747 279.124 292.505 275.671 292.187 271.17C291.838 266.195 294.989 262.705 299.988 262.513C301.72 262.446 303.466 262.567 305.203 262.678C309.298 262.934 313.143 262.092 316.728 260.115C318.429 259.175 320.094 258.169 321.741 257.14C325.841 254.572 330.003 252.483 334.976 255.18C335.187 254.558 335.366 254.201 335.428 253.825C336.502 247.163 337.621 240.506 338.57 233.826C338.776 232.381 338.602 230.753 338.136 229.362C335.133 220.333 330.541 212.168 324.364 204.921C318.854 198.456 312.418 193.159 304.603 189.669C303.632 189.235 302.593 188.958 301.421 188.546C301.3 189.687 301.201 190.39 301.152 191.096C300.736 196.76 298.408 201.547 294.353 205.462C287.729 211.86 279.775 215.264 270.55 215.184C266.912 215.148 263.286 214.365 259.361 213.886ZM566.142 269.036C565.918 271.966 565.627 274.293 565.582 276.619C565.34 288.484 565.126 300.349 564.991 312.213C564.951 315.788 565.094 319.376 565.358 322.942C565.716 327.72 566.988 328.932 571.822 329.389C574.776 329.67 577.739 329.984 580.702 330.01C590.835 330.095 600.968 330.06 611.102 330.064C611.872 330.064 612.641 329.984 613.461 329.934C612.583 327.031 611.769 324.333 610.914 321.492C608.327 321.492 605.619 321.899 603.077 321.421C594.017 319.703 588.875 311.019 591.985 302.711C592.934 300.17 594.375 297.678 596.108 295.597C599.858 291.088 604.916 289.504 610.703 290.215C612.785 290.47 614.351 291.401 615.126 293.486C615.349 294.09 615.81 294.886 616.339 295.056C618.818 295.852 619.969 297.557 620.054 299.982C623.191 301.297 623.164 301.319 625.872 304.335C626.253 304.76 627.018 304.836 627.792 305.149C627.855 304.388 627.913 303.995 627.922 303.601C628.061 298.326 630.496 295.445 635.71 294.694C637.304 294.461 638.986 294.541 640.593 294.761C642.612 295.038 644.586 295.633 646.591 296.036C648.695 296.456 650.794 297.011 652.92 297.154C656.277 297.378 659.307 294.85 659.58 291.678C659.974 287.092 660.278 282.502 659.468 277.912C658.823 274.261 658.081 273.232 654.437 272.915C648.426 272.391 642.397 272.051 636.373 271.801C626.655 271.394 616.934 271.188 607.221 270.772C595.36 270.266 583.508 269.622 571.647 269.063C569.928 268.969 568.205 269.036 566.142 269.036ZM645.503 228.735C645.503 227.29 645.418 226.082 645.521 224.892C645.723 222.633 647.052 221.828 649.124 222.754C650.14 223.205 651.062 223.894 651.989 224.53C653.748 225.733 655.476 226.972 657.338 228.283C661.245 224.485 664.396 220.356 667.055 215.855C672.547 206.563 675.693 196.613 674.785 185.723C673.818 174.181 668.536 165.291 657.843 160.16C650.955 156.853 643.623 156.482 636.211 157.753C625.201 159.636 615.779 164.79 607.535 172.194C602.562 176.659 598.305 181.719 594.908 187.705C595.83 188.775 596.622 189.835 597.558 190.756C598.941 192.121 600.427 193.378 601.864 194.693C602.696 195.454 603.672 196.215 603.309 197.521C602.96 198.765 601.917 199.172 600.718 199.337C599.925 199.445 599.147 199.695 598.368 199.883C599.129 203.082 598.95 203.565 596.152 204.657C593.404 205.726 590.602 206.652 587.742 207.668C587.017 211.453 587.062 215.202 587.465 218.978C588.848 231.885 597.535 242.072 610.081 245.029C620.729 247.539 630.791 245.365 640.419 240.582C640.58 240.502 640.674 240.278 640.678 240.269C640.387 237.092 639.94 234.055 639.877 231.017C639.828 228.48 640.974 227.724 643.409 228.203C643.982 228.315 644.541 228.489 645.503 228.735ZM351.121 511.525C352.356 519.256 353.52 526.83 354.791 534.386C355.619 539.33 356.63 544.242 357.499 549.177C358.13 552.751 360.032 554.63 363.805 555.02C374.494 556.116 385.137 557.7 395.839 558.621C414.548 560.236 433.289 559.977 452.011 558.541C454.446 558.353 456.872 557.856 459.253 557.292C460.721 556.944 462.18 556.286 462.583 554.103C461.688 553.373 460.784 552.362 459.661 551.772C456.765 550.255 453.837 548.761 450.807 547.548C440.15 543.285 429.064 540.341 418.053 537.173C412.615 535.608 412.624 535.608 407.544 538.484C406.031 539.339 404.527 540.238 402.942 540.931C401.613 541.518 400.391 540.994 399.818 539.853C399.214 538.645 399.639 537.639 400.584 536.856C401.206 536.337 401.953 535.97 402.66 535.554C404.052 534.735 405.458 533.934 406.917 533.089C406.604 531.621 406.335 530.387 406.013 528.87C404.545 529.599 403.448 530.118 402.374 530.682C400.382 531.733 398.444 532.887 396.412 533.854C394.72 534.659 393.292 534.283 392.616 533.089C391.865 531.756 392.446 530.436 394.264 529.384C394.617 529.179 395.002 529.035 395.365 528.848C398.699 527.098 402.029 525.349 405.534 523.506C405.31 523.125 405.131 522.445 404.836 522.396C403.345 522.128 401.85 521.877 400.387 522.75C398.807 523.694 397.128 524.472 395.49 525.309C394.76 525.68 394.04 526.092 393.274 526.365C391.69 526.937 390.432 526.521 389.868 525.259C389.255 523.895 389.837 522.87 390.96 522.105C391.547 521.707 392.214 521.412 392.845 521.081C396.64 519.099 400.436 517.121 404.419 515.041C403.94 511.686 403.479 508.429 402.983 504.944C386.261 512.997 368.894 512.491 351.121 511.525ZM387.536 298.443C389.112 293.593 397.473 249.727 397.258 247.7C395.356 247.7 393.462 247.7 391.511 247.7C390.629 249.865 389.877 251.874 389.004 253.834C388.257 255.511 387.42 257.153 386.534 258.759C386.006 259.721 385.043 260.419 383.991 259.945C383.266 259.618 382.644 258.764 382.291 257.999C381.87 257.086 381.785 256.017 381.44 254.532C380.72 255.681 380.348 256.281 379.968 256.876C379.529 257.565 379.131 258.29 378.625 258.929C377.658 260.155 376.597 261.327 374.811 260.996C373.37 260.728 372.591 259.417 372.399 257.14C372.336 256.393 372.296 255.641 372.211 254.397C371.32 255.422 370.81 256.021 370.286 256.616C369.745 257.229 369.221 257.86 368.639 258.437C366.849 260.213 365.255 260.759 364.074 259.882C362.418 258.652 362.87 256.921 363.402 255.391C364.745 251.53 366.088 247.655 367.757 243.933C368.42 242.461 368.532 241.32 367.901 239.933C366.885 237.701 366.007 235.401 364.965 233.182C361.267 225.308 357.463 217.492 352.696 210.186C351.774 208.773 350.946 207.202 349.08 206.428C347.553 209.73 347.124 213.193 346.56 216.589C343.695 233.84 340.893 251.1 338.114 268.365C337.398 272.807 336.789 277.268 336.234 281.733C335.831 284.967 336.292 285.612 339.389 286.726C340.446 287.106 341.533 287.41 342.621 287.683C351.353 289.853 360.081 292.05 368.827 294.157C374.982 295.642 381.172 296.993 387.536 298.443ZM448.681 376.091C449.303 375.51 449.644 375.277 449.872 374.964C456.621 365.636 465.569 358.885 475.613 353.57C478.531 352.026 480.232 350.022 480.89 346.957C481.23 345.365 481.583 343.745 481.664 342.126C481.897 337.45 479.892 334.623 475.416 333.142C474.449 332.824 473.437 332.61 472.43 332.467C464.768 331.393 457.1 331.621 449.487 332.811C434.623 335.137 420.519 339.96 406.975 346.416C403.672 347.991 400.557 350.022 397.562 352.138C395.848 353.351 394.465 355.091 393.091 356.724C391.565 358.545 391.726 360.634 393.122 362.37C394.111 363.6 395.472 364.661 396.878 365.385C398.395 366.173 400.127 366.701 401.823 366.96C411.308 368.428 420.815 369.783 430.236 371.166C432.904 368.718 435.518 366.289 438.176 363.905C438.933 363.224 439.743 362.549 440.643 362.102C442.831 361.019 444.599 362.294 444.313 364.723C444.183 365.801 443.829 366.853 443.431 368.522C444.787 367.528 445.62 366.83 446.537 366.262C448.511 365.032 450.248 365.913 450.373 368.24C450.422 369.139 450.234 370.07 450.029 370.96C449.675 372.548 449.214 374.1 448.681 376.091ZM442.406 408.854C442.478 408.317 442.572 408.098 442.518 407.927C440.123 400.452 441.081 393.168 443.914 386.046C444.523 384.516 444.192 383.603 443.033 382.601C440.105 380.064 436.668 378.565 433.043 377.384C426.186 375.138 419.042 374.557 411.943 373.617C406.895 372.951 401.859 371.971 396.927 370.709C392.084 369.47 388.615 366.423 387.254 361.381C387.178 361.095 386.977 360.844 386.749 360.415C385.527 360.415 384.242 360.415 382.792 360.415C386.126 375.944 389.421 391.298 392.751 406.809C409.374 407.494 425.904 408.174 442.406 408.854ZM539.04 227.845C539.121 242.206 550.055 263.135 560.587 269.201C561.053 267.041 561.997 265.193 563.819 263.9C564.119 263.69 564.226 263.202 564.414 262.84C570.076 251.896 576.749 241.602 584.358 231.916C585.146 230.914 585.348 230.073 584.882 228.856C584.193 227.049 583.593 225.178 583.19 223.286C581.113 213.47 582.389 203.954 585.974 194.676C586.382 193.624 586.784 192.568 587.187 191.517C587.004 191.396 586.816 191.275 586.632 191.155C572.211 205.39 556.393 217.814 539.04 227.845ZM486.113 347.687C490.455 346.447 505.91 337.786 509.32 334.498C510.39 333.464 511.563 332.431 511.8 330.498C510.547 330.163 509.401 329.8 508.233 329.559C499.617 327.773 490.978 326.087 482.385 324.221C465.587 320.575 448.816 316.826 432.027 313.126C428.553 312.361 425.071 311.627 421.75 310.911C410.14 325.832 395.306 336.202 378.961 344.765C379.829 348.376 380.635 351.722 381.409 354.925C385.401 355.74 388.785 355.829 390.737 351.704C391.148 350.836 392.124 350.219 392.881 349.53C396.475 346.251 400.633 343.844 405.006 341.799C415.13 337.061 425.599 333.285 436.417 330.422C446.806 327.675 457.333 326.472 468.044 327.017C470.788 327.156 473.572 327.532 476.221 328.234C483.181 330.073 486.78 335.008 486.619 342.197C486.583 344.009 486.297 345.821 486.113 347.687ZM332.77 289.477C332.371 289.772 331.718 290.242 331.078 290.73C325.559 294.944 319.378 297.284 312.404 297.655C303.609 298.121 295.656 295.579 288.163 291.222C287.223 290.676 286.297 290.112 284.775 289.209C285.357 292.604 285.742 295.324 286.306 298.004C287.487 303.615 289.067 309.104 291.681 314.253C292.625 316.115 293.883 317.273 296.072 317.551C302.965 318.419 309.84 319.43 316.728 320.351C317.288 320.427 317.883 320.244 318.483 320.181C318.8 319.04 319.091 318.07 319.342 317.09C320.649 311.994 322.345 310.5 327.707 310.397C331.995 310.316 336.292 310.58 340.584 310.683C341.372 310.701 342.164 310.688 343.127 310.688C343.982 304.872 344.286 299.203 344.026 293.535C340.356 292.206 336.825 290.94 332.77 289.477ZM416.101 309.806C399.559 306.156 383.262 302.563 366.853 298.944C370.627 312.62 374.31 325.966 377.998 339.338C390.884 333.585 408.215 320.396 416.101 309.806ZM346.9 517.014C344.049 500.443 341.354 484.06 338.118 467.815C333.486 467.815 329.238 467.815 324.883 467.815C323.357 484.283 321.853 500.546 320.327 517.014C329.184 517.014 337.836 517.014 346.9 517.014ZM321.719 362.33C321.772 362.571 321.831 362.817 321.884 363.059C329.287 364.902 336.735 364.934 344.264 363.488C346.891 362.983 348.328 361.663 349.102 359.095C352.172 348.908 355.153 338.708 356.178 328.06C356.501 324.727 356.698 321.38 356.971 317.85C355.749 317.537 354.894 317.202 354.012 317.112C348.113 316.504 342.214 315.868 336.306 315.412C333.459 315.193 330.576 315.242 327.716 315.35C325.053 315.448 324.829 315.721 324.194 318.253C324.01 318.987 323.97 319.756 323.845 320.669C324.829 320.745 325.559 320.7 326.23 320.879C328.692 321.523 331.297 321.904 333.544 323.004C337.59 324.991 338.284 329.357 335.384 332.784C334.811 333.464 334.036 333.974 333.741 334.229C334.627 336.117 335.921 337.643 335.876 339.128C335.836 340.605 334.448 342.041 333.589 343.602C333.88 343.785 334.408 344.081 334.896 344.434C337.165 346.081 337.706 348.13 336.323 350.572C335.63 351.803 334.761 353.037 333.687 353.928C331.1 356.075 328.374 358.071 325.64 360.035C324.418 360.911 323.035 361.569 321.719 362.33ZM663.371 272.275C662.637 259.958 660.614 248.076 656.008 236.506C655.364 236.963 654.943 237.236 654.549 237.54C647.204 243.257 639.152 247.548 630.03 249.651C628.799 249.932 628.128 250.617 627.604 251.709C626.15 254.746 624.619 257.748 623.097 260.755C622.233 262.459 621.334 264.146 620.336 266.047C621.168 266.182 621.651 266.311 622.135 266.334C626.118 266.49 630.102 266.62 634.085 266.763C639.703 266.964 645.329 267.018 650.933 267.43C655.449 267.761 660.207 267.819 663.371 272.275ZM707.163 456.59C704.58 456.415 702.154 456.058 699.742 456.125C688.091 456.447 676.441 456.876 664.79 457.292C664.114 457.315 663.443 457.529 662.534 457.699C662.534 462.003 662.427 466.177 662.57 470.343C662.673 473.224 663.344 473.931 666.209 474.338C668.832 474.709 671.504 474.951 674.153 474.937C682.64 474.897 691.126 474.731 699.612 474.566C701.241 474.535 702.871 474.329 704.495 474.141C705.861 473.984 706.706 473.295 706.859 471.806C707.342 466.938 708.067 462.079 707.163 456.59ZM441.744 259.444C443.583 259.444 445.284 259.082 446.716 259.547C448.117 260.003 449.245 261.301 450.615 262.321C453.394 258.24 455.489 253.869 456.075 248.886C456.519 245.127 455.677 243.316 452.177 241.79C449.294 240.533 446.251 239.517 443.185 238.819C435.07 236.981 426.92 235.858 418.586 237.844C415.546 238.569 413.389 239.813 412.069 242.676C410.891 245.226 409.289 247.593 409.079 250.796C412.104 250.044 414.083 251.512 415.81 253.726C417.082 252.308 418.053 250.957 419.297 249.937C419.978 249.382 421.177 249.065 422.036 249.217C423.254 249.431 423.71 250.653 423.746 251.838C423.769 252.536 423.518 253.243 423.411 253.95C423.267 254.907 423.142 255.865 422.963 257.153C426.951 255.552 429.695 256.455 431.172 260.307C434.121 257.963 435.862 255.064 437.747 252.281C438.566 251.069 439.631 250.331 441.122 250.935C442.478 251.485 442.706 252.724 442.59 254.013C442.509 254.925 442.285 255.825 442.142 256.733C441.985 257.704 441.856 258.679 441.744 259.444ZM286.028 315.153C286.086 314.674 286.135 314.558 286.104 314.477C282.492 305.386 280.348 295.96 279.511 286.216C279.435 285.348 278.719 284.377 278.039 283.737C273.151 279.165 268.939 274.051 265.367 268.396C264.956 267.747 264.445 267.157 263.658 266.114C263.04 269.64 262.489 272.637 262.002 275.639C260.52 284.73 259.258 293.839 259.218 303.078C259.209 304.948 259.777 305.981 261.487 306.858C269.194 310.813 277.497 312.911 286.028 315.153ZM680.997 479.979C681.064 481.223 681.095 482.216 681.172 483.209C681.713 490.126 682.299 497.043 682.792 503.964C683.051 507.628 683.123 511.31 683.329 514.978C683.472 517.511 683.897 518.021 686.462 518.106C689.524 518.204 692.594 518.088 695.656 518.03C696.327 518.016 696.994 517.846 697.746 517.734C697.732 505.006 696.895 492.52 695.714 479.984C690.71 479.979 685.961 479.979 680.997 479.979ZM686.91 363.931C686.905 363.878 686.905 363.824 686.901 363.766C681.798 364.048 676.687 364.258 671.589 364.634C668.635 364.853 665.694 365.26 662.767 365.721C660.623 366.056 660.153 366.643 660.211 368.786C660.251 370.311 660.471 371.841 660.739 373.349C661.746 379.071 662.543 379.72 668.321 379.782C677.188 379.876 685.791 378.06 694.398 376.235C696.054 375.881 696.658 374.839 696.77 373.483C696.949 371.354 697.003 369.197 696.868 367.068C696.712 364.531 696.264 364.115 693.659 363.958C691.417 363.824 689.161 363.931 686.91 363.931ZM664.042 411.091C662.78 415.752 662.95 419.815 664.396 424.092C665.743 424.092 666.961 424.141 668.169 424.083C672.453 423.872 676.745 423.743 681.015 423.367C686.502 422.884 691.972 422.172 697.455 421.6C698.489 421.492 699.245 421.17 699.357 420.038C699.724 416.28 699.706 412.549 698.623 408.657C686.923 407.807 675.595 410.053 664.042 411.091ZM612.937 251.127C609.047 249.834 605.538 249.006 602.338 247.512C599.071 245.982 596.108 243.799 592.836 241.79C588.19 248.966 583.638 256.29 579.39 264.419C588.494 264.871 597.021 265.296 605.409 265.712C608.049 260.594 610.48 255.887 612.937 251.127ZM616.03 299.852C614.329 298.273 612.709 297.414 612.176 296.116C611.393 294.197 610.238 293.736 608.443 293.745C602.535 293.772 598.771 296.913 596.251 301.964C592.93 308.639 595.427 315.027 602.454 317.484C605.86 318.674 609.419 318.781 612.404 316.598C614.029 315.408 615.524 314.379 617.534 314.222C618.675 314.133 619.637 313.667 619.664 312.464C619.722 309.887 621.074 307.892 622.699 305.695C621.665 305.077 620.886 304.321 619.986 304.129C617.296 303.543 615.842 302.089 616.03 299.852ZM633.669 347.893C633.213 347.494 633.029 347.257 632.787 347.127C627.474 344.363 622.842 340.703 618.755 336.354C617.892 335.433 616.952 335.187 615.77 335.196C608.416 335.249 601.058 335.258 593.704 335.303C593.042 335.307 592.375 335.482 590.969 335.688C602.508 342.689 613.452 349.329 624.44 355.995C627.645 353.176 630.617 350.572 633.669 347.893ZM304.07 267.457C302.947 267.457 301.819 267.425 300.695 267.461C297.876 267.56 296.824 268.817 297.258 271.59C297.688 274.306 299.277 276.252 301.541 277.662C305.543 280.153 309.978 280.945 314.53 280.149C320.322 279.133 325.702 276.901 330.63 273.622C332.031 272.691 332.716 271.501 332.904 269.859C333.155 267.622 333.553 265.408 333.871 263.18C334.153 261.22 333.714 260.397 332.053 259.43C330.782 258.692 329.48 258.683 328.24 259.341C326.078 260.491 323.934 261.685 321.844 262.96C316.379 266.307 310.583 268.307 304.07 267.457ZM691.524 451.449C690.889 443.28 690.293 435.603 689.671 427.635C687.577 427.823 685.768 427.993 683.96 428.149C682.067 428.315 680.173 428.463 678.047 428.642C678.544 436.511 678.764 444.081 679.695 451.454C683.732 451.449 687.371 451.449 691.524 451.449ZM675.219 384.668C675.707 391.455 676.177 397.919 676.655 404.608C680.702 404.21 684.412 403.843 688.311 403.463C687.939 396.488 687.585 389.804 687.218 382.887C683.069 383.5 679.363 384.05 675.219 384.668ZM336.878 462.5C335.885 457.704 334.896 453.056 332.309 448.944C331.521 447.691 330.514 446.492 328.464 446.242C326.638 451.49 326.002 456.863 325.358 462.5C329.31 462.5 332.94 462.5 336.878 462.5ZM569.646 263.846C571.857 263.784 573.558 264.741 574.883 262.419C579.336 254.603 583.974 246.89 588.624 239.186C589.555 237.643 589.528 236.582 587.827 235.634C580.966 244.349 574.847 253.498 569.646 263.846ZM622.354 251.163C618.608 250.818 618.612 250.818 617.216 253.552C615.502 256.916 613.774 260.272 612.069 263.645C611.764 264.249 611.563 264.902 611.164 265.895C612.552 265.967 613.608 266.025 614.7 266.083C617.292 261.032 619.789 256.165 622.354 251.163ZM644.416 238.775C648.216 235.947 651.358 233.603 654.773 231.062C652.808 229.666 651.277 228.579 649.366 227.219C649.366 228.919 649.447 230.109 649.348 231.285C649.178 233.294 648.153 233.961 646.224 233.401C645.414 233.169 644.626 232.86 643.364 232.431C643.722 234.596 643.995 236.247 644.416 238.775ZM666.119 159.14C668.697 157.252 669.212 156.12 668.397 154.357C667.153 151.65 662.906 150.921 660.838 153.055C659.638 154.294 659.759 155.279 661.272 156.218C662.825 157.18 664.405 158.106 666.119 159.14ZM588.338 202.961C590.741 203.01 592.37 202.317 593.659 201.485C593.377 200.035 592.786 198.805 593.001 197.745C593.409 195.749 595.687 196.546 597.294 195.655C595.741 194.183 594.389 192.908 592.652 191.262C591.13 195.391 589.801 198.988 588.338 202.961ZM446.689 265.345C446.734 263.77 446.179 263.01 444.993 263.023C443.597 263.036 442.155 264.307 442.115 265.631C442.079 266.906 442.952 267.381 444.035 267.501C445.508 267.667 446.649 266.705 446.689 265.345ZM326.024 329.169C327.484 329.639 328.526 329.993 329.583 330.31C330.854 330.686 331.543 329.907 331.861 328.892C332.232 327.711 331.297 327.259 330.379 327.035C328.585 326.588 327.282 327.322 326.024 329.169ZM426.705 260.146C424.717 260.737 423.934 261.265 423.482 262.236C422.847 263.605 423.585 264.638 425.111 264.508C427.3 264.325 427.725 263.265 426.705 260.146ZM376.275 254.693C376.481 254.746 376.691 254.8 376.897 254.854C378.065 252.661 379.238 250.469 380.666 247.794C379.243 248.004 378.397 248.129 377.56 248.255C377.103 250.559 376.687 252.626 376.275 254.693ZM412.498 256.482C411.312 254.384 410.654 254.022 409.486 254.679C408.631 255.162 408.358 255.901 408.962 256.692C410.122 258.218 411.218 257.296 412.498 256.482ZM444.21 376.91C444.738 375.349 445.709 374.163 445.275 372.163C443.95 373.412 442.907 374.396 441.762 375.474C442.411 375.953 442.71 376.212 443.051 376.418C443.301 376.57 443.592 376.655 444.21 376.91ZM327.412 349.865C329.972 350.953 329.972 350.953 331.4 348.613C329.162 347.714 329.162 347.714 327.412 349.865ZM437.205 373.483C437.8 371.787 438.279 370.423 438.754 369.063C438.602 368.982 438.445 368.902 438.293 368.821C437.071 369.931 435.853 371.04 434.35 372.405C435.491 372.839 436.198 373.107 437.205 373.483ZM370.17 247.423C369.606 248.93 369.091 250.313 368.572 251.7C371.817 249.056 371.817 249.056 370.17 247.423ZM330.129 339.083C328.428 338.377 327.211 337.777 326.297 339.522C327.712 341.24 328.697 340.099 330.129 339.083ZM385.697 251.158C386.529 250.183 387.259 249.181 386.852 247.566C384.954 248.501 385.657 249.928 385.697 251.158ZM558.331 317.98C558.909 319.193 558.909 319.193 559.947 319.743C559.799 318.159 559.799 318.159 558.331 317.98Z" fill="black"/>
<path d="M426.415 108.461C422.573 108.848 419.005 109.212 415.442 109.554C414.326 109.662 413.192 109.837 412.085 109.738C410.866 109.63 409.803 108.839 409.902 107.579C409.969 106.72 410.749 105.861 411.359 105.128C411.645 104.786 412.282 104.732 412.766 104.561C418.741 102.447 424.079 99.1627 428.84 95.0602C431.211 93.0179 433.282 90.4808 434.998 87.8448C437.629 83.8098 437.208 79.9277 433.622 76.7158C430.278 73.7199 426.46 71.2548 422.842 68.5603C422.022 67.9485 421.094 67.4582 420.39 66.7339C419.507 65.8253 418.943 64.6827 419.633 63.3737C420.341 62.0287 421.574 61.9972 422.838 62.2536C425.348 62.7619 427.827 63.4366 430.35 63.8415C435.751 64.7007 441.188 65.0336 446.518 63.4951C448.759 62.8474 450.946 61.8757 453.008 60.7691C455.747 59.2981 456.93 56.851 456.168 53.7651C455.455 50.8772 454.514 48.0477 453.676 45.1912C453.129 43.3199 452.546 41.4576 452.058 39.5728C451.704 38.2143 451.753 36.8603 453.022 35.9471C454.021 35.2274 456.558 35.6142 457.544 36.8243C460.722 40.7289 465.151 42.6497 469.53 44.6694C470.274 45.0113 471.054 45.2812 471.802 45.6141C480.843 49.6356 488.768 45.0113 492.399 39.4873C495.146 35.3038 497.275 30.711 499.655 26.2846C500.09 25.4749 500.296 24.5257 500.798 23.77C501.923 22.0741 504.07 22.2316 505.003 24.0489C505.325 24.6787 505.473 25.4074 505.68 26.0957C507.939 33.6079 512.721 39.2714 518.858 43.8507C522.493 46.5633 526.513 47.0041 530.785 45.2272C535.025 43.4639 538.58 40.7109 542.009 37.7554C543.873 36.145 545.639 34.4176 547.477 32.7757C548.239 32.0965 549.014 31.3812 549.897 30.8909C551.901 29.7753 553.573 30.6435 553.869 32.9557C554.129 34.9934 554.106 37.0672 554.411 39.096C554.779 41.5296 555.164 43.9947 555.886 46.3338C558.396 54.4489 564.268 58.8303 572.735 59.1722C577.186 59.3521 581.511 58.5739 585.818 57.5978C588.409 57.013 590.996 56.4192 593.604 55.9244C595.133 55.632 596.764 55.4295 597.481 57.3683C597.974 58.7044 597.365 59.6985 595.303 60.94C590.364 63.909 586.32 67.7776 583.6 72.9012C582.788 74.4262 582.147 76.0951 581.753 77.7774C580.919 81.3492 581.932 83.4499 585.173 85.1413C589.135 87.2105 593.479 88.0472 597.818 88.8165C601.045 89.3922 604.308 89.7611 607.544 90.2694C608.651 90.4449 609.758 90.7013 610.821 91.0521C612.201 91.5065 613.187 92.3792 612.918 94.0121C612.672 95.51 611.489 95.8339 610.202 96.0543C606.173 96.7426 602.058 97.1654 598.145 98.2855C593.936 99.4956 589.732 101.012 585.863 103.045C577.836 107.26 576.545 112.325 580.928 120.314C581.471 121.304 582.206 122.203 582.636 123.238C583.017 124.151 583.304 125.199 583.268 126.175C583.205 127.876 582.035 128.775 580.341 128.492C579.351 128.326 578.409 127.844 577.459 127.48C571.166 125.069 564.667 123.746 557.916 124.102C552.053 124.412 548.813 127.754 548.866 133.589C548.893 136.333 549.454 139.086 549.888 141.816C550.095 143.13 550.601 144.389 550.897 145.694C551.336 147.628 550.915 148.906 549.687 149.414C548.194 150.03 547.163 149.284 546.217 148.195C543.524 145.096 540.906 141.915 538.046 138.973C534.707 135.537 530.736 133.013 525.998 131.897C520.637 130.638 515.769 131.884 511.556 135.258C510.104 136.418 508.979 138.204 508.19 139.927C506.948 142.621 506.137 145.514 505.11 148.307C504.653 149.558 504.286 150.898 503.555 151.974C503.125 152.603 502.018 153.166 501.291 153.08C500.561 152.995 499.817 152.158 499.297 151.483C498.956 151.047 499.041 150.3 498.871 149.711C497.939 146.454 497.02 143.188 496.016 139.954C495.653 138.784 495.115 137.655 494.568 136.553C490.619 128.623 484.837 125.744 476.141 127.466C474.039 127.885 471.897 128.375 469.947 129.23C464.138 131.785 458.4 134.506 452.663 137.232C451.426 137.822 450.337 138.078 449.315 137.008C448.391 136.04 448.508 134.956 449.162 133.89C449.593 133.188 450.072 132.523 450.529 131.839C452.524 128.861 453.546 125.564 453.734 121.992C453.927 118.285 452.596 115.406 449.395 113.396C446.473 111.56 443.299 110.4 439.933 109.936C435.366 109.302 430.771 108.92 426.415 108.461ZM549.001 38.2323C547.544 39.5143 546.406 40.5264 545.258 41.5206C541.677 44.6155 537.939 47.4629 533.591 49.4557C526.845 52.5416 520.624 51.6824 514.877 47.1121C510.503 43.6348 506.751 39.5773 503.945 34.6921C503.55 34.0083 503.084 33.3695 502.511 32.4923C501.206 34.782 500.068 36.8288 498.884 38.8485C496.679 42.6182 494.021 45.9965 490.301 48.3806C484.451 52.1322 478.23 53.4772 471.578 50.8097C468.163 49.4377 464.85 47.7958 461.493 46.2799C460.807 45.9695 460.117 45.6726 459.207 45.2677C459.884 47.9892 460.597 50.3374 461.045 52.7395C462.067 58.2095 460.328 62.1276 455.612 65.0696C452.085 67.2738 448.225 68.6727 444.097 69.1001C440.691 69.451 437.262 69.5229 433.537 69.7344C434.671 70.7735 435.648 71.6372 436.589 72.5368C442.336 78.0339 443.125 84.435 438.889 91.1826C436.28 95.3391 432.815 98.6634 428.826 101.461C428.024 102.024 427.253 102.635 426.061 103.535C429.723 103.814 432.856 103.985 435.971 104.3C441.623 104.867 447.1 106.023 452.004 109.149C456.773 112.19 459.019 116.504 458.669 122.145C458.575 123.679 458.302 125.204 458.109 126.733C458.024 127.408 457.934 128.087 457.809 129.072C460.624 127.804 463.129 126.643 465.657 125.541C470.883 123.269 476.267 121.826 482.058 122.131C487.253 122.41 491.578 124.322 495.007 128.272C497.325 130.944 499.032 133.967 500.323 137.241C500.798 138.442 501.305 139.635 502 141.326C502.609 139.972 503.026 139.081 503.416 138.177C504.528 135.595 505.935 133.197 508.19 131.466C514.474 126.657 521.417 125.123 529.046 127.552C533.622 129.009 537.544 131.587 541.022 134.875C541.811 135.622 542.609 136.351 543.864 137.511C543.864 135.397 543.784 133.895 543.878 132.401C544.348 125.06 549.203 119.86 556.5 119.221C559.539 118.956 562.654 119.14 565.693 119.468C568.907 119.815 572.08 120.575 575.554 121.209C575.182 120.089 574.855 119.252 574.631 118.384C574.214 116.801 573.654 115.217 573.519 113.602C573.057 108.007 575.836 103.958 580.063 100.751C583.533 98.1191 587.49 96.4232 591.574 94.9927C592.596 94.6329 593.609 94.2415 594.626 93.8636C593.438 93.1079 592.277 92.892 591.17 92.5231C588.459 91.6144 585.644 90.8812 583.093 89.6307C577.419 86.8417 575.554 82.5412 576.926 76.3785C577.795 72.4694 579.79 69.1406 582.134 65.9872C582.726 65.191 583.362 64.4308 584.268 63.2837C582.564 63.4636 581.368 63.6256 580.166 63.711C577.719 63.8865 575.258 64.2014 572.815 64.1339C561.529 63.81 553.667 57.5393 550.758 46.5902C550.081 44.0262 549.66 41.3991 549.001 38.2323Z" fill="black"/>
<path d="M254.982 161.289C254.226 163.366 253.541 165.376 252.763 167.347C252.224 168.715 252.038 170.476 250.08 170.645C248.202 170.806 247.526 169.214 246.681 168.006C245.179 165.849 243.773 163.625 242.337 161.44C240.586 161.44 238.876 161.436 237.166 161.44C235.999 161.445 234.704 161.293 234.443 160.036C234.271 159.212 234.699 158.075 235.216 157.326C236.193 155.913 237.364 154.616 238.58 153.399C239.566 152.414 239.72 151.415 239.468 150.087C238.991 147.591 238.655 145.068 238.363 142.545C238.235 141.44 238.244 140.218 239.415 139.563C240.569 138.917 241.559 139.514 242.483 140.192C244.038 141.328 245.625 142.425 247.114 143.646C248.091 144.448 249.05 144.618 250.195 144.19C251.804 143.593 253.421 143.013 255.057 142.478C256.016 142.166 256.993 141.845 257.983 141.72C260.524 141.399 261.417 142.572 260.484 144.939C260.038 146.075 259.538 147.194 258.964 148.268C258.296 149.521 258.425 150.533 259.432 151.563C260.851 153.011 262.177 154.554 263.543 156.056C264.091 156.657 264.718 157.197 265.169 157.861C266.34 159.59 265.669 161.137 263.578 161.289C261.567 161.436 259.538 161.298 257.514 161.289C256.719 161.284 255.919 161.289 254.982 161.289ZM242.677 144.943C242.522 145.072 242.368 145.202 242.217 145.331C242.553 147.016 242.867 148.705 243.225 150.386C243.636 152.325 243.322 153.987 241.736 155.343C241.121 155.868 240.693 156.608 239.884 157.616C240.989 157.558 241.493 157.571 241.988 157.5C243.716 157.246 244.896 157.937 245.665 159.506C246.155 160.509 246.699 161.489 247.305 162.425C247.928 163.384 248.321 164.596 249.753 165.082C250.341 163.29 250.876 161.663 251.41 160.036C251.989 158.262 253.156 157.406 255.052 157.509C256.414 157.585 257.788 157.522 259.644 157.522C258.469 156.105 257.669 154.964 256.692 154.01C254.668 152.031 253.841 149.895 255.375 147.239C255.437 147.132 255.273 146.891 255.145 146.499C253.642 146.962 252.096 147.346 250.624 147.921C248.723 148.665 247.106 148.34 245.563 147.056C244.653 146.289 243.645 145.643 242.677 144.943Z" fill="black"/>
<path d="M189.04 186.969C193.528 187.781 198.025 188.651 202.539 189.406C214.782 191.456 227.026 193.471 239.278 195.472C242.991 196.08 246.726 196.577 250.444 197.15C252.456 197.461 253.293 198.264 253.2 199.72C253.111 201.135 252.024 202.156 250.159 202.014C247.323 201.801 244.5 201.357 241.695 200.891C223.936 197.922 206.185 194.918 188.43 191.918C187.932 191.833 187.282 191.864 186.984 191.563C186.382 190.959 185.697 190.213 185.55 189.437C185.345 188.345 186.138 187.524 187.202 187.182C187.767 187 188.404 187.036 189.04 186.969Z" fill="black"/>
<path d="M273.147 139.193C272.774 132.077 272.393 124.956 272.042 117.84C271.994 116.829 271.985 115.799 272.121 114.801C272.274 113.647 273.098 113.028 274.199 112.943C275.308 112.859 276.189 113.393 276.5 114.503C276.741 115.367 276.842 116.294 276.882 117.199C277.368 128.592 277.785 139.99 278.319 151.38C278.604 157.48 279.095 163.571 279.472 169.667C279.529 170.58 279.569 171.502 279.472 172.407C279.35 173.534 278.688 174.265 277.535 174.399C276.408 174.532 275.527 174.069 275.154 172.982C274.865 172.131 274.69 171.208 274.637 170.308C274.028 159.944 273.449 149.575 272.866 139.211C272.958 139.206 273.05 139.202 273.147 139.193Z" fill="black"/>
<path d="M228.159 213.607C228.96 215.375 229.698 216.857 230.305 218.393C230.79 219.617 231.51 220.918 230.369 222.173C229.182 223.478 227.9 222.69 226.66 222.245C225.011 221.656 223.372 221.053 221.56 220.401C220.487 221.412 219.44 222.39 218.403 223.378C217.556 224.185 216.564 225.11 215.446 224.303C214.739 223.791 214.25 222.685 214.101 221.77C213.806 219.948 213.815 218.076 213.698 216.2C212.244 215.543 210.835 215.103 209.671 214.31C208.915 213.793 208.055 212.737 208.082 211.958C208.109 211.187 209.074 209.977 209.839 209.782C213.453 208.844 215.129 206.701 215.079 202.962C215.07 202.218 215.799 201.063 216.451 200.827C217.076 200.605 218.353 201.094 218.802 201.684C221.125 204.752 224.092 206.102 227.9 205.685C228.299 205.64 228.72 205.79 229.128 205.862C232.185 206.406 232.692 207.793 230.745 210.313C229.934 211.364 229.101 212.411 228.159 213.607ZM217.715 218.117C218.997 217.586 220.151 216.771 221.347 216.698C222.674 216.617 224.046 217.21 225.541 217.537C224.146 213.712 224.146 213.712 226.089 209.361C223.213 209.524 220.568 209.084 218.498 206.787C217.488 210.566 217.488 210.566 214.268 212.162C217.706 212.932 217.298 215.647 217.715 218.117Z" fill="black"/>
<path d="M309.945 150.48C310.514 148.753 311.123 146.984 311.674 145.202C311.994 144.163 312.323 143.167 313.581 143.066C314.905 142.96 315.985 143.392 316.599 144.706C317.261 146.12 317.923 147.54 318.563 148.964C319.377 150.774 320.572 152.024 322.581 152.396C323.666 152.598 324.799 152.938 325.719 153.53C326.399 153.967 327.164 154.918 327.164 155.639C327.168 156.328 326.355 157.215 325.684 157.67C324.772 158.285 323.652 158.575 322.417 159.089C322.332 160.421 322.399 161.795 322.11 163.086C321.879 164.119 321.439 165.35 320.688 165.957C319.585 166.848 318.652 165.704 317.825 164.946C317.145 164.321 316.492 163.669 315.643 162.861C314.536 164.009 313.581 165.249 312.385 166.145C311.67 166.683 310.474 167.055 309.687 166.821C309.114 166.651 308.781 165.387 308.483 164.556C308.318 164.092 308.367 163.499 308.46 162.994C309.016 160.017 308.558 157.674 305.896 155.667C303.7 154.008 304.42 152.014 307.118 151.206C307.998 150.949 308.887 150.751 309.945 150.48ZM310.461 154.817C312.51 156.039 312.483 157.968 312.483 159.902C315.412 158.313 315.412 158.313 318.341 159.672C318.75 158.317 319.159 156.957 319.608 155.478C316.741 154.725 316.256 151.624 314.492 149.658C312.616 153.416 312.616 153.416 310.461 154.817Z" fill="black"/>
<path d="M253.754 185.714C252.702 185.315 251.908 185.097 251.186 184.73C239.625 178.789 228.073 172.825 216.521 166.865C216.155 166.675 215.79 166.475 215.46 166.23C214.432 165.45 214.035 164.412 214.621 163.228C215.194 162.072 216.264 161.663 217.487 161.972C218.276 162.171 219.034 162.539 219.765 162.911C230.957 168.67 242.143 174.439 253.321 180.231C254.038 180.603 254.85 181.043 255.257 181.687C255.645 182.295 255.861 183.333 255.599 183.945C255.297 184.671 254.395 185.138 253.754 185.714Z" fill="black"/>
<path d="M348.469 168.213C348.305 169.572 347.312 170.224 346.172 170.785C341.967 172.842 337.766 174.903 333.579 176.997C329.215 179.182 324.868 181.418 320.512 183.627C319.971 183.902 319.43 184.242 318.853 184.38C317.767 184.637 316.849 184.274 316.254 183.255C315.651 182.217 315.793 181.18 316.591 180.381C317.23 179.738 318.015 179.192 318.822 178.788C327.281 174.545 335.753 170.33 344.238 166.138C344.854 165.835 345.586 165.628 346.265 165.638C347.547 165.651 348.54 166.859 348.469 168.213Z" fill="black"/>
<path d="M292.079 169.17C292.524 166.991 293.02 164.116 293.707 161.301C294.838 156.669 296.067 152.059 297.313 147.459C298.008 144.886 299.11 143.943 300.602 144.428C302.068 144.904 302.428 146.301 301.793 148.955C300.11 156.014 298.432 163.077 296.758 170.136C296.711 170.337 296.69 170.548 296.631 170.744C296.143 172.388 295.143 173.294 293.99 173.152C292.664 172.987 291.956 171.793 292.079 169.17Z" fill="black"/>
<path d="M290.439 150.778C290.243 154.056 290.046 157.334 289.85 160.612C289.831 160.917 289.826 161.228 289.774 161.533C289.477 163.359 288.39 164.447 286.958 164.38C285.465 164.312 284.502 163.202 284.545 161.286C284.608 158.62 284.833 155.963 284.967 153.296C285.144 149.708 285.283 146.12 285.46 142.537C285.503 141.718 285.594 140.896 285.752 140.091C286.001 138.841 286.81 138.045 288.203 138.031C289.788 138.018 290.564 138.971 290.765 140.333C290.87 141.035 290.765 141.763 290.765 142.478C290.765 145.243 290.765 148.013 290.765 150.778C290.655 150.774 290.544 150.774 290.439 150.778Z" fill="black"/>
<path d="M232.535 186.968C232.106 186.83 231.311 186.619 230.548 186.324C224.869 184.14 219.185 181.955 213.518 179.738C211.035 178.767 210.182 177.544 210.764 175.961C211.356 174.356 212.706 173.983 215.252 174.949C221.329 177.249 227.383 179.613 233.442 181.964C234.779 182.484 235.844 183.275 235.632 184.954C235.474 186.209 234.359 187.005 232.535 186.968Z" fill="black"/>
<path d="M333.43 133.798C333.397 136.441 331.972 138.05 329.687 138.031C327.514 138.012 325.902 136.18 325.91 133.736C325.918 130.993 327.688 129.261 330.493 129.247C332.429 129.238 333.468 130.846 333.43 133.798Z" fill="black"/>
<path d="M239.397 234.653C240.81 234.638 241.921 235.733 241.926 237.14C241.931 238.542 240.829 239.667 239.436 239.672C238.029 239.677 236.927 238.587 236.912 237.18C236.898 235.758 237.975 234.663 239.397 234.653Z" fill="black"/>
<path d="M195.397 207.042C194 206.963 192.957 205.784 193.044 204.393C193.136 203.002 194.305 201.957 195.692 202.031C197.065 202.105 198.122 203.298 198.05 204.684C197.967 206.075 196.793 207.121 195.397 207.042Z" fill="black"/>
<path d="M263.57 542.088C263.901 542.148 264.488 542.245 265.067 542.364C268.643 543.105 272.214 543.849 275.785 544.602C276.46 544.742 277.147 544.874 277.795 545.1C279.079 545.542 279.744 546.436 279.47 547.784C279.187 549.167 278.061 549.801 276.825 549.567C272.075 548.669 267.342 547.686 262.644 546.572C261.073 546.197 260.469 544.942 260.83 543.7C261.182 542.488 262.096 542.045 263.57 542.088Z" fill="black"/>
<path d="M271.468 560.907C267.677 559.982 263.865 559.141 260.106 558.096C258.534 557.662 257.91 556.293 258.367 555.013C258.859 553.636 260.002 553.167 261.33 553.464C265.039 554.287 268.744 555.151 272.407 556.156C274.061 556.612 274.806 557.91 274.413 559.096C273.961 560.465 272.877 560.903 271.468 560.907Z" fill="black"/>
<path d="M257.677 565.927C260.247 566.628 263.287 567.343 266.256 568.316C267.876 568.847 268.483 570.195 268.17 571.587C267.858 572.969 266.714 573.733 265.069 573.363C262.125 572.696 259.195 571.942 256.291 571.1C254.989 570.725 254.241 569.625 254.518 568.078C254.796 566.54 255.86 565.98 257.677 565.927Z" fill="black"/>
<path d="M289.19 250.965C283.001 250.88 278.299 248.669 274.123 245.212C270.389 242.117 267.226 238.53 266.009 233.589C264.917 229.158 267.27 224.33 271.336 223.126C273.539 222.471 275.91 222.047 278.188 222.11C285.85 222.323 291.902 225.856 296.52 232.028C298.555 234.749 299.449 237.907 299.577 241.251C299.763 246.025 297.255 249.323 292.703 250.442C291.344 250.776 289.92 250.861 289.19 250.965ZM293.636 236.888C292.278 234.049 290.247 232.114 287.982 230.453C283.815 227.403 279.139 226.465 274.154 227.566C271.013 228.26 270.022 230.273 271.088 233.323C271.424 234.284 271.875 235.232 272.437 236.071C274.888 239.721 278.073 242.523 282.028 244.369C282.687 244.675 283.421 244.811 284.231 245.059C282.842 237.961 286.018 235.2 293.636 236.888Z" fill="black"/>
<path d="M328.416 222.111C328.293 225.743 327.773 229.695 326.017 233.381C324.186 237.219 321.25 239.669 317.165 240.649C313.851 241.445 310.994 240.505 308.547 238.181C306.042 235.799 304.272 232.859 303.749 229.447C302.499 221.325 304.074 213.966 309.845 207.79C314.524 202.778 319.3 204.131 323.314 207.979C326.853 211.373 328.478 216.124 328.416 222.111ZM321.294 231.38C323.363 226.791 324.248 222.098 322.958 217.284C322.447 215.373 321.413 213.485 320.198 211.925C317.878 208.945 315.409 208.981 312.887 211.791C308.533 216.641 307.666 222.457 308.591 228.71C308.679 229.312 309.114 229.865 309.528 230.733C310.906 227.667 312.416 225.092 315.73 225.24C319.313 225.397 320.251 228.427 321.294 231.38Z" fill="black"/>
<path d="M309.907 249.119C309.255 248.646 308.582 248.246 308.01 247.724C307.107 246.9 306.808 245.843 307.452 244.718C308.066 243.642 309.076 243.129 310.18 243.629C311.676 244.308 313.18 245.069 314.498 246.063C315.866 247.089 316.168 248.705 315.631 250.149C315.069 251.661 312.963 253.461 311.748 253.475C310.487 253.488 309.506 252.579 309.494 251.225C309.489 250.55 309.749 249.87 309.907 249.119Z" fill="black"/>
<path d="M607.729 286.101C605.176 286.11 603.4 284.461 603.004 281.716C602.515 278.324 604.663 274.24 607.785 272.68C609.085 272.032 610.339 272.171 611.145 273.382C612.166 274.919 613.284 276.474 613.871 278.177C615.279 282.262 612.208 286.092 607.729 286.101ZM608.303 276.456C607.683 278.079 607.156 279.133 606.9 280.246C606.7 281.122 606.779 282.213 608.065 282.302C609.253 282.382 610.036 281.614 610.236 280.519C610.493 279.133 609.822 278.034 608.303 276.456Z" fill="black"/>
<path d="M620.32 235.906C612.687 235.194 605 232.466 599.362 225.616C595.401 220.802 594.165 215.439 596.828 209.557C600.007 202.526 607.854 201.162 613.305 206.693C614.083 207.485 614.856 208.303 615.501 209.201C619.067 214.15 623.868 217.626 629.057 220.714C630.768 221.735 632.4 223.037 633.72 224.52C636.628 227.776 635.961 231.032 632.16 233.297C629.661 234.785 624.877 235.942 620.32 235.906ZM630.777 228.132C629.159 226.883 627.923 225.699 626.482 224.863C620.818 221.564 615.661 217.714 611.762 212.386C611.228 211.656 610.61 210.974 609.979 210.322C606.68 206.939 602.919 207.669 601.15 212.012C599.509 216.029 600.576 219.623 603.301 222.659C608.961 228.959 616.15 231.612 624.628 230.649C626.638 230.416 628.63 229.936 630.777 228.132Z" fill="black"/>
<path d="M631.765 186.277C631.548 191.699 630.383 196.3 627.424 200.207C626.264 201.736 624.833 203.187 623.243 204.2C618.579 207.172 613.548 205.894 610.642 201.101C608.432 197.45 607.675 193.37 608.033 189.116C608.352 185.342 609.389 181.727 611.289 178.482C613.893 174.032 617.742 171.722 622.88 171.923C624.922 172.001 626.534 172.827 627.779 174.561C630.401 178.208 631.503 182.343 631.765 186.277ZM624.124 196.327C626.915 191.124 627.752 185.981 625.453 180.485C623.868 176.693 621.693 175.894 618.309 178.13C617.317 178.788 616.347 179.691 615.753 180.718C613.805 184.077 612.724 187.751 612.905 191.704C612.963 192.95 613.357 194.182 613.641 195.643C617.485 191.959 620.683 190.613 624.124 196.327Z" fill="black"/>
<path d="M663.102 199.737C662.866 200.953 662.807 202.237 662.363 203.371C659.695 210.139 655.113 214.953 647.864 216.695C643.763 217.684 640.006 216.853 637.098 213.533C634.24 210.266 633.396 206.583 635.275 202.572C638.369 195.962 643.763 192.233 650.799 190.9C653.621 190.364 656.374 191.176 658.874 192.605C661.904 194.334 662.98 196.248 663.102 199.737ZM647.483 211.532C652.137 210.135 654.696 207.236 656.719 203.765C657.785 201.937 658.702 199.85 657.354 197.922C656.079 196.099 653.856 195.849 651.733 195.881C651.026 195.89 650.304 196.108 649.619 196.325C646.485 197.328 643.817 199.079 641.717 201.606C640.977 202.495 640.451 203.566 639.825 204.555C639.938 204.727 640.052 204.899 640.17 205.072C642.538 203.811 644.928 203.071 647.133 204.999C649.12 206.741 648.517 208.892 647.483 211.532Z" fill="black"/>
<path d="M651.015 171.915C652.018 172.366 653.038 172.746 653.993 173.265C655.848 174.272 656.112 175.695 654.606 177.185C653.385 178.387 652.013 179.439 650.628 180.433C648.505 181.959 646.325 183.4 644.145 184.836C643.568 185.215 642.916 185.626 642.265 185.699C641.644 185.766 640.697 185.617 640.411 185.188C640.037 184.628 639.872 183.544 640.15 182.957C640.836 181.494 641.826 180.184 642.877 178.522C641.805 178.278 640.893 178.111 640.007 177.854C638.044 177.285 637.441 175.83 638.669 174.137C639.859 172.497 641.275 171.02 642.686 169.571C644.31 167.904 646.008 166.314 647.732 164.756C648.396 164.155 649.16 163.532 649.981 163.288C650.737 163.058 651.801 163.044 652.404 163.451C652.869 163.767 653.129 164.964 652.969 165.632C652.465 167.71 651.714 169.729 651.015 171.915ZM647.988 177.885C648.783 177.167 649.373 176.634 650.441 175.672L647.988 177.885ZM646.116 171.797C645.231 172.565 644.362 173.324 643.246 174.299L646.116 171.797Z" fill="#F4BB49"/>
<path d="M626.028 215.83C625.727 215.776 625.146 215.844 624.812 215.565C624.11 214.981 623.215 214.312 623.015 213.499C622.86 212.87 623.462 211.54 624.026 211.284C625.317 210.705 625.627 209.685 625.856 208.459C625.932 208.059 626.049 207.655 626.233 207.3C626.788 206.217 627.607 205.548 628.807 205.876C629.981 206.195 630.624 207.16 630.495 208.396C630.315 210.121 630.014 211.855 629.534 213.512C629.049 215.188 627.896 215.853 626.028 215.83Z" fill="black"/>
<path d="M350.98 323.057C351.012 324.862 349.916 326.255 348.461 326.255C347.127 326.255 346.043 324.987 345.971 323.354C345.894 321.621 346.982 320.108 348.389 319.988C349.827 319.868 350.944 321.184 350.98 323.057Z" fill="black"/>
<path d="M309.818 276.062C308.186 275.829 306.531 275.685 304.926 275.335C302.745 274.855 301.884 273.828 302.138 272.317C302.392 270.792 303.593 270.016 305.788 270.496C309.446 271.294 313.001 270.751 316.569 270.101C320.314 269.415 323.601 267.746 326.521 265.333C327.233 264.745 327.963 264.126 328.793 263.754C329.804 263.297 330.838 263.481 331.595 264.404C332.343 265.315 332.375 266.311 331.676 267.23C331.187 267.876 330.575 268.45 329.958 268.984C324.182 273.94 317.286 275.699 309.818 276.062Z" fill="black"/>
<path d="M569.654 70.1059C569.528 70.4261 569.354 71.1341 569.005 71.7384C567.554 74.2322 567.214 77.0012 567.161 79.7881C567.071 84.3969 569.345 87.6484 573.628 89.2854C574.774 89.7228 575.969 90.034 577.115 90.4669C578.382 90.9494 579.165 91.8965 579.116 93.2809C579.066 94.6834 578.176 95.3643 576.887 95.8829C574.913 96.6721 572.926 97.547 571.162 98.7195C567.886 100.902 565.155 106.684 567.451 111.671C567.537 111.856 567.568 112.068 567.648 112.257C568.168 113.416 568.638 114.593 567.608 115.712C566.498 116.92 565.249 116.528 563.938 116.032C557.398 113.561 551.24 114.765 545.434 118.255C542.726 119.883 540.949 122.381 539.853 125.416C538.756 128.442 537.19 128.745 534.929 126.431C532.57 124.018 529.469 123.184 526.407 122.485C518.024 120.573 510.562 121.985 504.775 129.047C502.993 131.22 501.069 130.887 499.61 128.528C492.963 117.777 480.336 115.103 470.731 120.068C468.918 121.006 467.213 122.174 465.561 123.378C464.581 124.091 463.637 124.641 462.473 124.131C461.152 123.549 460.964 122.35 460.973 121.029C460.982 119.797 460.861 118.557 460.718 117.331C460.105 112.077 457.375 108.298 452.626 106.142C448.682 104.352 444.493 103.396 440.147 103.238C439.637 103.22 439.122 103.247 438.612 103.202C437.327 103.089 436.517 102.341 436.271 101.114C436.016 99.8199 436.727 98.9179 437.819 98.3813C438.643 97.9799 439.556 97.768 440.415 97.4343C443.495 96.2482 445.854 94.1783 447.568 91.3688C450.195 87.0666 449.524 82.4443 445.782 79.0846C444.945 78.3315 444.005 77.6911 443.119 76.9967C441.346 75.6077 440.885 74.4307 441.606 73.1274C442.255 71.9504 443.352 71.6888 445.397 72.2796C449.967 73.6009 454.34 72.956 458.467 70.7553C463.01 68.3292 465.337 64.4419 465.485 59.2332C465.53 57.6955 465.534 56.1216 465.857 54.6289C466.398 52.1035 468.117 51.4587 470.118 53.0866C472.844 55.3099 475.919 56.4418 479.347 56.9153C484.682 57.6549 489.32 56.2569 493.093 52.3921C494.659 50.7867 495.948 48.9017 497.358 47.1384C497.998 46.3402 498.518 45.4067 499.269 44.7438C500.693 43.4856 502.304 43.6615 503.141 45.3075C506.664 52.2208 513.293 54.4666 519.881 56.771C522.509 57.691 525.158 57.1859 527.745 56.4553C531.908 55.2828 535.856 53.6007 539.419 51.0889C539.839 50.7912 540.238 50.4665 540.676 50.205C543.559 48.4643 545.287 49.1633 545.945 52.541C546.741 56.6041 548.491 60.0901 551.275 63.1431C554.843 67.0529 559.296 67.7745 564.197 67.1431C565.008 67.0394 565.804 66.7688 566.614 66.7282C568.606 66.6245 569.721 67.7655 569.654 70.1059Z" fill="black"/>
<path d="M616.723 223.317C616.66 225.083 615.089 226.466 613.713 225.607C611.812 224.416 610.035 222.894 608.389 221.266C607.937 220.825 607.799 219.25 608.134 218.654C608.572 217.877 609.584 217.224 610.42 217.099C612.2 216.825 616.334 220.676 616.677 222.668C616.714 222.875 616.71 223.1 616.723 223.317Z" fill="black"/>
<path d="M466.019 84.0941H469.077V72.6559H472.554V70.1495H462.542V72.6559H466.019V84.0941Z" fill="white"/>
<path d="M480.044 72.7753C478.745 72.7753 477.706 73.3323 477.067 73.9887H476.987V69.0156H473.969V84.0941H476.987V76.5549C477.367 75.8586 478.206 75.3215 478.925 75.3215C479.944 75.3215 480.484 75.9183 480.484 77.1118V84.0941H483.501V76.5151C483.501 73.9887 482.243 72.7753 480.044 72.7753Z" fill="white"/>
<path d="M491.462 81.1898C491.122 81.6473 490.462 81.9855 489.723 81.9855C488.944 81.9855 488.504 81.528 488.504 80.8914C488.504 79.9167 489.483 79.4591 491.462 79.5984V81.1898ZM489.823 72.6559C487.325 72.6559 486.206 74.1479 485.766 74.7645L487.904 76.336C488.184 75.6796 488.764 75.0629 489.843 75.0629C490.762 75.0629 491.462 75.4409 491.462 76.6941V77.5694C487.904 77.3903 485.566 78.5839 485.566 81.1699C485.566 82.7812 486.705 84.2731 488.904 84.2731C490.522 84.2731 491.362 83.5769 491.781 83.0199H491.861C492.201 83.7161 492.82 84.2333 493.9 84.2333C494.399 84.2333 494.919 84.1538 495.398 83.8554V81.7866H495.079C494.539 81.7866 494.299 81.5081 494.299 80.8715V76.3758C494.299 73.6506 492.701 72.6559 489.823 72.6559Z" fill="white"/>
<path d="M500.691 84.1935C502.57 84.1935 503.449 83.7758 503.829 83.4973L503.049 81.2495C502.61 81.5876 501.99 81.7468 501.511 81.7468C500.771 81.7468 500.332 81.3489 500.332 80.5731V75.1425H503.149V72.8549H500.332V70.0301H498.413L497.374 72.6758L495.915 73.2726V75.1425H497.354V80.4935C497.354 83.2188 498.753 84.1935 500.691 84.1935Z" fill="white"/>
<path d="M504.895 76.535C506.713 75.9382 508.752 74.2672 508.752 71.6414C508.752 70.1694 507.892 69.0156 506.414 69.0156C505.215 69.0156 504.515 69.8909 504.515 70.9253V71.0447C505.434 71.5221 506.534 71.9398 506.534 72.9941C506.534 73.8097 505.834 74.7844 504.275 75.3215L504.895 76.535Z" fill="white"/>
<path d="M515.592 80.971C515.592 81.4882 515.233 81.9258 514.294 81.9258C512.935 81.9258 511.836 81.1102 511.336 80.5333L509.537 82.6021C510.157 83.2586 511.656 84.293 514.134 84.293C517.411 84.293 518.59 82.2839 518.59 80.7919C518.59 77.0323 513.274 77.629 513.274 75.9382C513.274 75.421 513.714 75.0629 514.393 75.0629C515.433 75.0629 516.212 75.6597 516.612 76.1172L518.55 74.2274C517.811 73.3721 516.512 72.6559 514.473 72.6559C511.856 72.6559 510.277 74.307 510.277 76.1371C510.277 79.8769 515.592 79.3398 515.592 80.971Z" fill="white"/>
<path d="M534.275 77.6688L531.617 70.1495H526.921V84.0941H529.719V73.7699H529.839L532.916 82.4231H535.434C536.473 79.5387 537.512 76.6543 538.552 73.7699H538.632V84.0941H541.549V70.1495H536.973L534.355 77.6688H534.275Z" fill="white"/>
<path d="M544.016 87.993C544.296 88.1322 545.055 88.3312 545.854 88.3312C548.492 88.3312 549.611 86.6204 550.251 84.6511L554.048 72.8549H550.93L549.871 76.6742C549.451 78.186 549.192 79.5785 549.032 80.593H548.952C548.812 79.6382 548.372 77.9473 547.953 76.6742L546.694 72.8549H543.316L547.553 84.0543C547.453 85.1882 546.814 85.8048 545.734 85.8048C545.235 85.8048 544.815 85.6855 544.515 85.5263L544.016 87.993Z" fill="white"/>
<path d="M489.499 107.816C491.378 107.816 492.257 107.398 492.637 107.12L491.858 104.872C491.418 105.21 490.798 105.369 490.319 105.369C489.579 105.369 489.14 104.971 489.14 104.195V98.7647H491.957V96.4771H489.14V93.6524H487.221L486.182 96.2981L484.723 96.8948V98.7647H486.162V104.116C486.162 106.841 487.561 107.816 489.499 107.816Z" fill="white"/>
<path d="M499.238 104.812C498.899 105.27 498.239 105.608 497.5 105.608C496.72 105.608 496.281 105.15 496.281 104.514C496.281 103.539 497.26 103.081 499.238 103.221V104.812ZM497.6 96.2782C495.102 96.2782 493.983 97.7701 493.543 98.3868L495.681 99.9583C495.961 99.3018 496.541 98.6852 497.62 98.6852C498.539 98.6852 499.238 99.0631 499.238 100.316V101.192C495.681 101.013 493.343 102.206 493.343 104.792C493.343 106.403 494.482 107.895 496.68 107.895C498.299 107.895 499.138 107.199 499.558 106.642H499.638C499.978 107.338 500.597 107.856 501.676 107.856C502.176 107.856 502.695 107.776 503.175 107.478V105.409H502.855C502.316 105.409 502.076 105.13 502.076 104.494V99.9981C502.076 97.2728 500.477 96.2782 497.6 96.2782Z" fill="white"/>
<path d="M509.767 104.593C509.767 105.11 509.407 105.548 508.468 105.548C507.109 105.548 506.01 104.732 505.511 104.156L503.712 106.224C504.332 106.881 505.83 107.915 508.308 107.915C511.586 107.915 512.765 105.906 512.765 104.414C512.765 100.655 507.449 101.251 507.449 99.5604C507.449 99.0432 507.889 98.6852 508.568 98.6852C509.607 98.6852 510.387 99.2819 510.786 99.7395L512.725 97.8497C511.985 96.9943 510.686 96.2782 508.648 96.2782C506.03 96.2782 504.452 97.9292 504.452 99.7594C504.452 103.499 509.767 102.962 509.767 104.593Z" fill="white"/>
<path d="M517.822 92.6379H514.805V107.716H517.822V92.6379ZM517.902 101.768L520.94 107.716H524.517L521.12 101.729V101.649L524.437 96.4771H520.98L517.902 101.689V101.768Z" fill="white"/>
<path d="M529.978 102.146L530.557 93.0954H526.94L527.54 102.146H529.978ZM526.92 106.085C526.92 107.06 527.72 107.856 528.719 107.856C529.778 107.856 530.577 107.06 530.577 106.085C530.577 105.011 529.778 104.215 528.719 104.215C527.72 104.215 526.92 105.011 526.92 106.085Z" fill="white"/>
</svg>
