<svg width="18" height="22" viewBox="0 0 18 22" fill="none" xmlns="http://www.w3.org/2000/svg">
<path d="M14.9905 21.1141C13.8329 22.2721 12.5556 22.0916 11.3381 21.5456C10.0438 20.9886 8.86048 20.9533 7.49351 21.5456C5.79119 22.303 4.88771 22.0828 3.86248 21.1141C-1.92581 14.9714 -1.07145 5.61427 5.50712 5.262C7.10264 5.35007 8.21971 6.1713 9.15951 6.23955C10.5564 5.94672 11.8935 5.10789 13.3886 5.21797C15.1849 5.36768 16.5284 6.09864 17.4254 7.41304C13.7303 9.70278 14.6061 14.7226 18 16.1317C17.3208 17.9701 16.4493 19.7865 14.9884 21.1295L14.9905 21.1141ZM9.03135 5.19595C8.85835 2.46588 11.0049 0.220168 13.474 0C13.8136 3.1484 10.6974 5.50419 9.03135 5.19595Z" fill="black"/>
</svg>
