<svg width="25" height="20" viewBox="0 0 25 20" fill="none" xmlns="http://www.w3.org/2000/svg">
<path d="M24.1543 2.40255C23.3694 2.74031 22.5444 2.97551 21.6994 3.10233C22.0944 3.03461 22.6757 2.32354 22.9071 2.03573C23.2586 1.6016 23.5265 1.10599 23.6972 0.574101C23.6972 0.534597 23.7367 0.478164 23.6972 0.449947C23.6772 0.43908 23.6549 0.433386 23.6323 0.433386C23.6096 0.433386 23.5873 0.43908 23.5674 0.449947C22.6499 0.946801 21.6734 1.32601 20.661 1.57862C20.6257 1.5894 20.5882 1.59037 20.5524 1.58142C20.5166 1.57247 20.4839 1.55394 20.4579 1.52783C20.3791 1.434 20.2942 1.3454 20.2039 1.26259C19.791 0.89264 19.3225 0.58985 18.8156 0.365296C18.1314 0.0845823 17.3923 -0.0369888 16.6542 0.00976414C15.938 0.0549945 15.2388 0.247089 14.6 0.574101C13.971 0.918867 13.4182 1.38724 12.9748 1.95108C12.5083 2.53142 12.1716 3.20491 11.9872 3.92626C11.8351 4.61241 11.8179 5.32157 11.9364 6.01431C11.9364 6.13282 11.9364 6.14975 11.8348 6.13282C7.81108 5.54026 4.50971 4.11249 1.81218 1.04814C1.69367 0.912703 1.6316 0.912703 1.53566 1.04814C0.361838 2.83145 0.931818 5.65313 2.39909 7.04704C2.59661 7.23327 2.79977 7.41386 3.01422 7.58316C2.34148 7.5354 1.68518 7.35309 1.08419 7.04704C0.971321 6.97368 0.909244 7.01318 0.903601 7.14862C0.887603 7.33639 0.887603 7.52519 0.903601 7.71296C1.02135 8.61285 1.37599 9.46532 1.93126 10.1832C2.48652 10.9011 3.22248 11.4586 4.06389 11.7988C4.269 11.8866 4.48272 11.9528 4.70159 11.9963C4.0788 12.1189 3.44005 12.138 2.81106 12.0527C2.67562 12.0245 2.62483 12.0979 2.67562 12.2277C3.50519 14.485 5.30543 15.1735 6.62597 15.5572C6.80656 15.5855 6.98715 15.5855 7.19031 15.6306C7.19031 15.6306 7.19031 15.6306 7.15645 15.6645C6.76706 16.3755 5.19256 16.8552 4.47021 17.1035C3.15173 17.5771 1.74599 17.7581 0.350551 17.634C0.13046 17.6001 0.0796696 17.6058 0.0232359 17.634C-0.0331977 17.6622 0.0232359 17.7243 0.085313 17.7807C0.367481 17.967 0.649649 18.1306 0.943104 18.2886C1.81672 18.7651 2.74031 19.1436 3.69707 19.4173C8.65194 20.783 14.2276 19.7785 17.9466 16.0821C20.8698 13.1814 21.8969 9.18023 21.8969 5.17344C21.8969 5.02107 22.0832 4.93078 22.1904 4.85177C22.9299 4.27552 23.582 3.59499 24.126 2.83145C24.2203 2.71763 24.2686 2.57272 24.2615 2.42512C24.2615 2.34047 24.2615 2.3574 24.1543 2.40255Z" fill="#33CCFF"/>
</svg>
